<svg width="16" height="16" viewBox="0 0 36 36" fill="none" xmlns="http://www.w3.org/2000/svg">
<mask id="mask0_982_54205" style="mask-type:alpha" maskUnits="userSpaceOnUse" x="2" y="3" width="36" height="36">
<path fill-rule="evenodd" clip-rule="evenodd" d="M4 6.60044V17.4267C5.11535 17.01 6.30046 16.7942 7.5 16.7942C8.69954 16.7942 9.88465 17.01 11 17.4267V6.60044C9.91175 6.07096 8.71514 5.79419 7.5 5.79419C6.28486 5.79419 5.08825 6.07096 4 6.60044ZM13 6.60044V17.4267C14.1154 17.01 15.3005 16.7942 16.5 16.7942C17.6995 16.7942 18.8846 17.01 20 17.4267V6.60044C18.9117 6.07096 17.7151 5.79419 16.5 5.79419C15.2849 5.79419 14.0883 6.07096 13 6.60044ZM12 4.8639C10.6066 4.16174 9.06559 3.79419 7.5 3.79419C5.74463 3.79419 4.02019 4.25625 2.5 5.13394C2.1906 5.31257 2 5.6427 2 5.99996V19C2 19.3572 2.1906 19.6874 2.5 19.866C2.8094 20.0446 3.1906 20.0446 3.5 19.866C4.71615 19.1638 6.09571 18.7942 7.5 18.7942C8.90429 18.7942 10.2838 19.1638 11.5 19.866C11.8094 20.0446 12.1906 20.0446 12.5 19.866C13.7162 19.1638 15.0957 18.7942 16.5 18.7942C17.9043 18.7942 19.2838 19.1638 20.5 19.866C20.8094 20.0446 21.1906 20.0446 21.5 19.866C21.8094 19.6874 22 19.3572 22 19V5.99996C22 5.6427 21.8094 5.31257 21.5 5.13394C19.9798 4.25625 18.2554 3.79419 16.5 3.79419C14.9344 3.79419 13.3934 4.16174 12 4.8639Z" fill="#111111"/>
</mask>
<g mask="url(#mask0_982_54205)">
<rect width="36" height="36" fill="#484848"/>
</g>
</svg>

