<svg width="32" height="32" viewBox="0 0 24 24" fill="none" xmlns="http://www.w3.org/2000/svg">
<mask id="mask0_1467_507876" style="mask-type:alpha" maskUnits="userSpaceOnUse" x="2" y="2" width="20" height="20">
<path d="M21.2756 6.01309C21.0055 5.68779 20.6713 5.42165 20.294 5.23123C19.9167 5.04081 19.5042 4.9302 19.0823 4.90629C19.054 4.43642 18.919 3.9792 18.6874 3.5695C18.4559 3.1598 18.1339 2.80843 17.7461 2.54217C17.3583 2.27592 16.9149 2.1018 16.4496 2.03311C15.9844 1.96441 15.5096 2.00294 15.0616 2.14576C14.6135 2.28859 14.2039 2.53193 13.864 2.85725C13.5241 3.18256 13.2629 3.58126 13.1003 4.02296C12.9377 4.46465 12.8779 4.93767 12.9257 5.40597C12.9734 5.87426 13.1273 6.32547 13.3757 6.72519C13.3996 6.76011 13.4106 6.80229 13.4068 6.84446C13.403 6.88663 13.3846 6.92614 13.3548 6.95619L6.95856 13.3642C6.92797 13.3933 6.88842 13.4112 6.84636 13.415C6.8043 13.4188 6.76219 13.4083 6.72688 13.3851C6.32769 13.1352 5.87673 12.98 5.40844 12.9313C4.94016 12.8826 4.46694 12.9416 4.02495 13.104C3.58296 13.2663 3.18389 13.5276 2.85822 13.868C2.53256 14.2083 2.28892 14.6187 2.14593 15.0677C2.00293 15.5167 1.96436 15.9925 2.03316 16.4587C2.10196 16.9249 2.27631 17.3692 2.54289 17.7577C2.80947 18.1461 3.16123 18.4684 3.57129 18.7C3.98135 18.9315 4.43886 19.0662 4.90886 19.0937C4.93713 19.5636 5.07219 20.0208 5.30376 20.4305C5.53533 20.8402 5.85728 21.1916 6.24509 21.4578C6.6329 21.7241 7.07632 21.8982 7.54155 21.9669C8.00677 22.0356 8.48153 21.9971 8.92963 21.8542C9.37772 21.7114 9.78732 21.4681 10.1272 21.1428C10.4671 20.8174 10.7283 20.4187 10.8909 19.977C11.0535 19.5354 11.1132 19.0623 11.0655 18.594C11.0178 18.1257 10.8639 17.6745 10.6155 17.2748C10.5916 17.2399 10.5806 17.1977 10.5844 17.1555C10.5882 17.1134 10.6066 17.0739 10.6364 17.0438L17.0326 10.6413C17.0626 10.6115 17.1021 10.593 17.1442 10.5892C17.1864 10.5854 17.2285 10.5964 17.2634 10.6204C17.8868 11.0138 18.6301 11.1712 19.3593 11.0641C20.0884 10.957 20.7553 10.5926 21.2395 10.0365C21.7238 9.48044 21.9934 8.7694 21.9999 8.03175C22.0063 7.29411 21.7491 6.57846 21.2747 6.014L21.2756 6.01309ZM20.4088 9.3153C20.096 9.67356 19.6659 9.90852 19.1957 9.97803C18.7255 10.0475 18.2459 9.94702 17.843 9.69454C17.5989 9.53948 17.3093 9.47228 17.022 9.50402C16.7346 9.53576 16.4666 9.66455 16.2622 9.86916L9.86685 16.2744C9.66243 16.4791 9.53377 16.7473 9.50206 17.035C9.47036 17.3226 9.53749 17.6125 9.6924 17.8569C9.86296 18.1308 9.96478 18.4419 9.98917 18.7638C10.0136 19.0856 9.9598 19.4086 9.83247 19.7052C9.70515 20.0017 9.50804 20.263 9.25797 20.4668C9.0079 20.6706 8.71229 20.8108 8.39637 20.8754C8.08044 20.94 7.75359 20.9272 7.44369 20.838C7.13379 20.7488 6.85005 20.5859 6.61669 20.3631C6.38332 20.1404 6.20726 19.8644 6.10352 19.5588C5.99978 19.2532 5.97145 18.927 6.02094 18.6081C6.03314 18.5302 6.02835 18.4506 6.00688 18.3747C5.98541 18.2989 5.94778 18.2286 5.89658 18.1687C5.84538 18.1088 5.78182 18.0607 5.71028 18.0278C5.63874 17.9948 5.56092 17.9778 5.48216 17.9778C5.45389 17.9781 5.42566 17.9802 5.39767 17.9842C5.07903 18.0337 4.75315 18.0054 4.44784 17.9015C4.14253 17.7977 3.86685 17.6214 3.64432 17.3878C3.4218 17.1542 3.25903 16.8702 3.16992 16.56C3.08081 16.2498 3.06799 15.9226 3.13257 15.6064C3.19715 15.2902 3.3372 14.9943 3.54077 14.744C3.74434 14.4936 4.00539 14.2963 4.30165 14.1689C4.5979 14.0414 4.92056 13.9876 5.24209 14.012C5.56362 14.0365 5.87448 14.1384 6.14813 14.3091C6.39228 14.4628 6.68136 14.5288 6.96794 14.4964C7.25453 14.4641 7.52161 14.3351 7.72538 14.1308L14.1243 7.72559C14.3287 7.52093 14.4574 7.25267 14.4891 6.96502C14.5208 6.67737 14.4537 6.38749 14.2988 6.14314C14.1282 5.86922 14.0264 5.55805 14.002 5.2362C13.9776 4.91436 14.0314 4.59138 14.1587 4.29483C14.286 3.99829 14.4831 3.73698 14.7332 3.53321C14.9833 3.32944 15.2789 3.18925 15.5948 3.12461C15.9107 3.05997 16.2376 3.0728 16.5475 3.162C16.8574 3.2512 17.1411 3.41412 17.3745 3.63687C17.6079 3.85961 17.7839 4.13556 17.8877 4.44118C17.9914 4.74679 18.0197 5.07299 17.9702 5.39194C17.9569 5.47692 17.9638 5.56385 17.9904 5.64565C18.017 5.72746 18.0625 5.80181 18.1233 5.86263C18.184 5.92346 18.2583 5.96905 18.34 5.99567C18.4218 6.02229 18.5086 6.0292 18.5935 6.01582C18.9996 5.95093 19.4158 6.01301 19.7854 6.19359C20.155 6.37416 20.4599 6.66445 20.6586 7.02486C20.8573 7.38526 20.9401 7.79825 20.8957 8.2075C20.8513 8.61674 20.6819 9.00233 20.4106 9.31167L20.4088 9.3153Z" fill="#111111"/>
</mask>
<g mask="url(#mask0_1467_507876)">
<rect width="32" height="32" fill="#EC5501"/>
</g>
</svg>
