<svg width="24" height="24" viewBox="0 0 24 24" fill="none" xmlns="http://www.w3.org/2000/svg">
<mask id="mask0_1092_54075" style="mask-type:alpha" maskUnits="userSpaceOnUse" x="3" y="3" width="18" height="18">
<path d="M6.70009 21C6.21675 21 5.78759 20.8417 5.41259 20.525C5.03759 20.2083 4.80842 19.8083 4.72509 19.325L3.20009 10.175C3.15009 9.875 3.22092 9.60417 3.41259 9.3625C3.60425 9.12083 3.85842 9 4.17509 9H19.8251C20.1418 9 20.3959 9.12083 20.5876 9.3625C20.7793 9.60417 20.8501 9.875 20.8001 10.175L19.2751 19.325C19.1918 19.8083 18.9626 20.2083 18.5876 20.525C18.2126 20.8417 17.7834 21 17.3001 21H6.70009ZM10.0001 15H14.0001C14.2834 15 14.5209 14.9042 14.7126 14.7125C14.9043 14.5208 15.0001 14.2833 15.0001 14C15.0001 13.7167 14.9043 13.4792 14.7126 13.2875C14.5209 13.0958 14.2834 13 14.0001 13H10.0001C9.71675 13 9.47925 13.0958 9.28759 13.2875C9.09592 13.4792 9.00009 13.7167 9.00009 14C9.00009 14.2833 9.09592 14.5208 9.28759 14.7125C9.47925 14.9042 9.71675 15 10.0001 15ZM6.00009 8C5.71675 8 5.47925 7.90417 5.28759 7.7125C5.09592 7.52083 5.00009 7.28333 5.00009 7C5.00009 6.71667 5.09592 6.47917 5.28759 6.2875C5.47925 6.09583 5.71675 6 6.00009 6H18.0001C18.2834 6 18.5209 6.09583 18.7126 6.2875C18.9043 6.47917 19.0001 6.71667 19.0001 7C19.0001 7.28333 18.9043 7.52083 18.7126 7.7125C18.5209 7.90417 18.2834 8 18.0001 8H6.00009ZM8.00009 5C7.71675 5 7.47925 4.90417 7.28759 4.7125C7.09592 4.52083 7.00009 4.28333 7.00009 4C7.00009 3.71667 7.09592 3.47917 7.28759 3.2875C7.47925 3.09583 7.71675 3 8.00009 3H16.0001C16.2834 3 16.5209 3.09583 16.7126 3.2875C16.9043 3.47917 17.0001 3.71667 17.0001 4C17.0001 4.28333 16.9043 4.52083 16.7126 4.7125C16.5209 4.90417 16.2834 5 16.0001 5H8.00009Z" fill="#212121"/>
</mask>
<g mask="url(#mask0_1092_54075)">
<rect width="24" height="24" fill="#111111"/>
</g>
</svg>
