<svg width="24" height="24" viewBox="0 0 24 24" fill="none" xmlns="http://www.w3.org/2000/svg">
<mask id="mask0_982_54221" style="mask-type:alpha" maskUnits="userSpaceOnUse" x="4" y="2" width="16" height="20">
<path d="M12 13.4999L14.125 15.1249C14.225 15.2082 14.325 15.2124 14.425 15.1374C14.525 15.0624 14.5583 14.9666 14.525 14.8499L13.7 12.1999L15.925 10.4499C16.0083 10.3666 16.0333 10.2707 16 10.1624C15.9667 10.0541 15.8917 9.9999 15.775 9.9999H13.1L12.25 7.3249C12.2167 7.20824 12.1333 7.1499 12 7.1499C11.8667 7.1499 11.7833 7.20824 11.75 7.3249L10.9 9.9999H8.225C8.10833 9.9999 8.02917 10.0541 7.9875 10.1624C7.94583 10.2707 7.96667 10.3666 8.05 10.4499L10.25 12.1999L9.425 14.8749C9.39167 14.9916 9.425 15.0874 9.525 15.1624C9.625 15.2374 9.725 15.2332 9.825 15.1499L12 13.4999ZM12 21.8999C11.8833 21.8999 11.775 21.8916 11.675 21.8749C11.575 21.8582 11.475 21.8332 11.375 21.7999C9.125 21.0499 7.33333 19.6624 6 17.6374C4.66667 15.6124 4 13.4332 4 11.0999V6.3749C4 5.95824 4.12083 5.58324 4.3625 5.2499C4.60417 4.91657 4.91667 4.6749 5.3 4.5249L11.3 2.2749C11.5333 2.19157 11.7667 2.1499 12 2.1499C12.2333 2.1499 12.4667 2.19157 12.7 2.2749L18.7 4.5249C19.0833 4.6749 19.3958 4.91657 19.6375 5.2499C19.8792 5.58324 20 5.95824 20 6.3749V11.0999C20 13.4332 19.3333 15.6124 18 17.6374C16.6667 19.6624 14.875 21.0499 12.625 21.7999C12.525 21.8332 12.425 21.8582 12.325 21.8749C12.225 21.8916 12.1167 21.8999 12 21.8999ZM12 19.8999C13.7333 19.3499 15.1667 18.2499 16.3 16.5999C17.4333 14.9499 18 13.1166 18 11.0999V6.3749L12 4.1249L6 6.3749V11.0999C6 13.1166 6.56667 14.9499 7.7 16.5999C8.83333 18.2499 10.2667 19.3499 12 19.8999Z" fill="#111111"/>
</mask>
<g mask="url(#mask0_982_54221)">
<rect width="24" height="24" fill="#111111"/>
</g>
</svg>
