<svg width="24" height="24" viewBox="0 0 24 24" fill="none" xmlns="http://www.w3.org/2000/svg">
<mask id="mask0_982_54198" style="mask-type:alpha" maskUnits="userSpaceOnUse" x="1" y="5" width="22" height="16">
<path d="M12.475 16.825L20.85 8.45L19.55 7.15L11.175 15.525L12.475 16.825ZM3 15.275C3 15.7583 3.16667 16.1333 3.5 16.4C3.83333 16.6667 4.38333 16.8417 5.15 16.925C5.41667 16.9583 5.62917 17.0792 5.7875 17.2875C5.94583 17.4958 6.01667 17.7333 6 18C5.98333 18.2833 5.88333 18.5167 5.7 18.7C5.51667 18.8833 5.29167 18.9583 5.025 18.925C3.675 18.7583 2.66667 18.3708 2 17.7625C1.33333 17.1542 1 16.325 1 15.275C1 14.1917 1.44583 13.3125 2.3375 12.6375C3.22917 11.9625 4.46667 11.5583 6.05 11.425C6.7 11.375 7.1875 11.2708 7.5125 11.1125C7.8375 10.9542 8 10.7333 8 10.45C8 10.0833 7.825 9.79583 7.475 9.5875C7.125 9.37917 6.55 9.21667 5.75 9.1C5.48333 9.06667 5.27083 8.94167 5.1125 8.725C4.95417 8.50833 4.89167 8.26667 4.925 8C4.95833 7.71667 5.075 7.4875 5.275 7.3125C5.475 7.1375 5.70833 7.06667 5.975 7.1C7.35833 7.3 8.375 7.67083 9.025 8.2125C9.675 8.75417 10 9.5 10 10.45C10 11.3333 9.67917 12.025 9.0375 12.525C8.39583 13.025 7.45 13.325 6.2 13.425C5.13333 13.5083 4.33333 13.7042 3.8 14.0125C3.26667 14.3208 3 14.7417 3 15.275ZM12.95 19.175L8.825 15.05L18.375 5.5C18.7083 5.16667 19.1042 5 19.5625 5C20.0208 5 20.4167 5.16667 20.75 5.5L22.5 7.25C22.8333 7.58333 23 7.97917 23 8.4375C23 8.89583 22.8333 9.29167 22.5 9.625L12.95 19.175ZM8.975 20C8.69167 20.0667 8.44167 19.9917 8.225 19.775C8.00833 19.5583 7.93333 19.3083 8 19.025L8.825 15.05L12.95 19.175L8.975 20Z" fill="#111111"/>
</mask>
<g mask="url(#mask0_982_54198)">
<rect width="24" height="24" fill="#111111"/>
</g>
</svg>
