<svg width="24" height="24" viewBox="0 0 24 24" fill="none" xmlns="http://www.w3.org/2000/svg">
<mask id="mask0_982_54139" style="mask-type:alpha" maskUnits="userSpaceOnUse" x="2" y="1" width="21" height="20">
<path d="M21 8.00007C21.5333 8.00007 22 8.20007 22.4 8.60007C22.8 9.00007 23 9.46674 23 10.0001V12.0001C23 12.1167 22.9875 12.2417 22.9625 12.3751C22.9375 12.5084 22.9 12.6334 22.85 12.7501L19.85 19.8001C19.7 20.1334 19.45 20.4167 19.1 20.6501C18.75 20.8834 18.3833 21.0001 18 21.0001H10C9.45 21.0001 8.97917 20.8042 8.5875 20.4126C8.19583 20.0209 8 19.5501 8 19.0001V8.82507C8 8.5584 8.05417 8.30424 8.1625 8.06257C8.27083 7.82091 8.41667 7.6084 8.6 7.42507L14.025 2.02507C14.275 1.79174 14.5708 1.65007 14.9125 1.60007C15.2542 1.55007 15.5833 1.6084 15.9 1.77507C16.2167 1.94174 16.4458 2.17507 16.5875 2.47507C16.7292 2.77507 16.7583 3.0834 16.675 3.40007L15.55 8.00007H21ZM4 21.0001C3.45 21.0001 2.97917 20.8042 2.5875 20.4126C2.19583 20.0209 2 19.5501 2 19.0001V10.0001C2 9.45007 2.19583 8.97924 2.5875 8.58757C2.97917 8.1959 3.45 8.00007 4 8.00007C4.55 8.00007 5.02083 8.1959 5.4125 8.58757C5.80417 8.97924 6 9.45007 6 10.0001V19.0001C6 19.5501 5.80417 20.0209 5.4125 20.4126C5.02083 20.8042 4.55 21.0001 4 21.0001Z" fill="#111111"/>
</mask>
<g mask="url(#mask0_982_54139)">
<rect width="24" height="24" fill="#111111"/>
</g>
</svg>
