<svg width="24" height="24" viewBox="0 0 24 24" fill="none" xmlns="http://www.w3.org/2000/svg">
<mask id="mask0_982_54049" style="mask-type:alpha" maskUnits="userSpaceOnUse" x="2" y="2" width="20" height="19">
<path d="M12 20.3249C11.7667 20.3249 11.5292 20.2832 11.2875 20.1999C11.0458 20.1166 10.8333 19.9832 10.65 19.7999L8.925 18.2249C7.15833 16.6082 5.5625 15.0041 4.1375 13.4124C2.7125 11.8207 2 10.0666 2 8.1499C2 6.58324 2.525 5.2749 3.575 4.2249C4.625 3.1749 5.93333 2.6499 7.5 2.6499C8.38333 2.6499 9.21667 2.8374 10 3.2124C10.7833 3.5874 11.45 4.0999 12 4.7499C12.55 4.0999 13.2167 3.5874 14 3.2124C14.7833 2.8374 15.6167 2.6499 16.5 2.6499C18.0667 2.6499 19.375 3.1749 20.425 4.2249C21.475 5.2749 22 6.58324 22 8.1499C22 10.0666 21.2917 11.8249 19.875 13.4249C18.4583 15.0249 16.85 16.6332 15.05 18.2499L13.35 19.7999C13.1667 19.9832 12.9542 20.1166 12.7125 20.1999C12.4708 20.2832 12.2333 20.3249 12 20.3249Z" fill="#111111"/>
</mask>
<g mask="url(#mask0_982_54049)">
<rect width="24" height="24" fill="#111111"/>
</g>
</svg>
