<svg width="24" height="24" viewBox="0 0 24 24" fill="none" xmlns="http://www.w3.org/2000/svg">
<mask id="mask0_982_54121" style="mask-type:alpha" maskUnits="userSpaceOnUse" x="1" y="1" width="22" height="22">
<path d="M10.9998 21.95V20.95C8.91647 20.7167 7.12897 19.8542 5.6373 18.3625C4.14564 16.8709 3.28314 15.0834 3.0498 13H2.0498C1.76647 13 1.52897 12.9042 1.3373 12.7125C1.14564 12.5209 1.0498 12.2834 1.0498 12C1.0498 11.7167 1.14564 11.4792 1.3373 11.2875C1.52897 11.0959 1.76647 11 2.0498 11H3.0498C3.28314 8.91672 4.14564 7.12922 5.6373 5.63755C7.12897 4.14588 8.91647 3.28338 10.9998 3.05005V2.05005C10.9998 1.76672 11.0956 1.52922 11.2873 1.33755C11.479 1.14588 11.7165 1.05005 11.9998 1.05005C12.2831 1.05005 12.5206 1.14588 12.7123 1.33755C12.904 1.52922 12.9998 1.76672 12.9998 2.05005V3.05005C15.0831 3.28338 16.8706 4.14588 18.3623 5.63755C19.854 7.12922 20.7165 8.91672 20.9498 11H21.9498C22.2331 11 22.4706 11.0959 22.6623 11.2875C22.854 11.4792 22.9498 11.7167 22.9498 12C22.9498 12.2834 22.854 12.5209 22.6623 12.7125C22.4706 12.9042 22.2331 13 21.9498 13H20.9498C20.7165 15.0834 19.854 16.8709 18.3623 18.3625C16.8706 19.8542 15.0831 20.7167 12.9998 20.95V21.95C12.9998 22.2334 12.904 22.4709 12.7123 22.6625C12.5206 22.8542 12.2831 22.95 11.9998 22.95C11.7165 22.95 11.479 22.8542 11.2873 22.6625C11.0956 22.4709 10.9998 22.2334 10.9998 21.95ZM11.9998 19C13.9331 19 15.5831 18.3167 16.9498 16.95C18.3165 15.5834 18.9998 13.9334 18.9998 12C18.9998 10.0667 18.3165 8.41672 16.9498 7.05005C15.5831 5.68338 13.9331 5.00005 11.9998 5.00005C10.0665 5.00005 8.41647 5.68338 7.0498 7.05005C5.68314 8.41672 4.9998 10.0667 4.9998 12C4.9998 13.9334 5.68314 15.5834 7.0498 16.95C8.41647 18.3167 10.0665 19 11.9998 19ZM11.9998 16C10.8998 16 9.95814 15.6084 9.1748 14.825C8.39147 14.0417 7.9998 13.1 7.9998 12C7.9998 10.9 8.39147 9.95838 9.1748 9.17505C9.95814 8.39172 10.8998 8.00005 11.9998 8.00005C13.0998 8.00005 14.0415 8.39172 14.8248 9.17505C15.6081 9.95838 15.9998 10.9 15.9998 12C15.9998 13.1 15.6081 14.0417 14.8248 14.825C14.0415 15.6084 13.0998 16 11.9998 16Z" fill="#111111"/>
</mask>
<g mask="url(#mask0_982_54121)">
<rect width="24" height="24" fill="#111111"/>
</g>
</svg>
