<svg width="24" height="24" viewBox="0 0 24 24" fill="none" xmlns="http://www.w3.org/2000/svg">
<mask id="mask0_982_54208" style="mask-type:alpha" maskUnits="userSpaceOnUse" x="2" y="4" width="20" height="17">
<path d="M12.088 5.82003C13.562 5.0954 15.1917 4.74499 16.8333 4.79975C18.4748 4.85452 20.0776 5.31277 21.5 6.13403C21.6347 6.21178 21.7494 6.31988 21.8349 6.44973C21.9205 6.57958 21.9746 6.7276 21.993 6.88203L22 7.00003V20C22 20.1756 21.9538 20.348 21.866 20.5C21.7782 20.652 21.652 20.7783 21.5 20.866C21.348 20.9538 21.1755 21 21 21C20.8245 21 20.652 20.9538 20.5 20.866C19.2838 20.1639 17.9043 19.7942 16.5 19.7942C15.0957 19.7942 13.7162 20.1639 12.5 20.866C12.348 20.9538 12.1755 21 12 21C11.8245 21 11.652 20.9538 11.5 20.866C10.3287 20.1896 9.00494 19.8213 7.65257 19.7954C6.30021 19.7695 4.96337 20.087 3.767 20.718L3.44 20.898L3.337 20.942L3.288 20.958L3.178 20.984L3.117 20.994L3 21H2.958L2.848 20.988L2.771 20.974L2.663 20.942L2.537 20.886L2.442 20.83L2.353 20.763L2.293 20.707L2.22 20.625L2.156 20.536L2.134 20.5L2.102 20.44L2.058 20.337L2.042 20.288L2.016 20.178L2.006 20.117L2.002 20.068L2 20V7.00003C2 6.82449 2.04621 6.65205 2.13398 6.50004C2.22175 6.34803 2.34798 6.22179 2.5 6.13403C3.9224 5.31277 5.52518 4.85452 7.16672 4.79975C8.80827 4.74499 10.438 5.0954 11.912 5.82003L12 5.86403L12.088 5.82003Z" fill="#111111"/>
</mask>
<g mask="url(#mask0_982_54208)">
<rect width="24" height="24" fill="#111111"/>
</g>
</svg>
