<svg width="24" height="24" viewBox="0 0 24 24" fill="none" xmlns="http://www.w3.org/2000/svg">
<mask id="mask0_982_54171" style="mask-type:alpha" maskUnits="userSpaceOnUse" x="1" y="3" width="22" height="20">
<path d="M15.175 8.3251C15.6583 8.80843 16.0125 9.35843 16.2375 9.9751C16.4625 10.5918 16.5417 11.2251 16.475 11.8751C16.475 12.1251 16.3833 12.3376 16.2 12.5126C16.0167 12.6876 15.8 12.7751 15.55 12.7751C15.3 12.7751 15.0875 12.6876 14.9125 12.5126C14.7375 12.3376 14.65 12.1251 14.65 11.8751C14.7333 11.4418 14.7083 11.0251 14.575 10.6251C14.4417 10.2251 14.2333 9.88343 13.95 9.6001C13.6667 9.31676 13.325 9.1001 12.925 8.9501C12.525 8.8001 12.1 8.76676 11.65 8.8501C11.4 8.8501 11.1875 8.75843 11.0125 8.5751C10.8375 8.39176 10.75 8.1751 10.75 7.9251C10.75 7.6751 10.8375 7.4626 11.0125 7.2876C11.1875 7.1126 11.4 7.0251 11.65 7.0251C12.2833 6.95843 12.9083 7.0376 13.525 7.2626C14.1417 7.4876 14.6917 7.84176 15.175 8.3251ZM12 6.0001C11.6833 6.0001 11.375 6.0126 11.075 6.0376C10.775 6.0626 10.475 6.10843 10.175 6.1751C9.89167 6.2251 9.6375 6.18343 9.4125 6.0501C9.1875 5.91676 9.03333 5.71676 8.95 5.4501C8.86667 5.18343 8.89583 4.9251 9.0375 4.6751C9.17917 4.4251 9.38333 4.2751 9.65 4.2251C10.0333 4.14176 10.4208 4.08343 10.8125 4.0501C11.2042 4.01676 11.6 4.0001 12 4.0001C14.2833 4.0001 16.3708 4.6001 18.2625 5.8001C20.1542 7.0001 21.6 8.61676 22.6 10.6501C22.6667 10.7834 22.7167 10.9209 22.75 11.0626C22.7833 11.2043 22.8 11.3501 22.8 11.5001C22.8 11.6501 22.7875 11.7959 22.7625 11.9376C22.7375 12.0793 22.6917 12.2168 22.625 12.3501C22.325 13.0168 21.9542 13.6418 21.5125 14.2251C21.0708 14.8084 20.5833 15.3418 20.05 15.8251C19.85 16.0084 19.6167 16.0834 19.35 16.0501C19.0833 16.0168 18.8667 15.8834 18.7 15.6501C18.5333 15.4168 18.4625 15.1626 18.4875 14.8876C18.5125 14.6126 18.625 14.3834 18.825 14.2001C19.225 13.8168 19.5917 13.4001 19.925 12.9501C20.2583 12.5001 20.55 12.0168 20.8 11.5001C19.9667 9.81676 18.7625 8.47926 17.1875 7.4876C15.6125 6.49593 13.8833 6.0001 12 6.0001ZM12 19.0001C9.76667 19.0001 7.725 18.3959 5.875 17.1876C4.025 15.9793 2.56667 14.3918 1.5 12.4251C1.41667 12.2918 1.35417 12.1459 1.3125 11.9876C1.27083 11.8293 1.25 11.6668 1.25 11.5001C1.25 11.3334 1.26667 11.1751 1.3 11.0251C1.33333 10.8751 1.39167 10.7251 1.475 10.5751C1.80833 9.90843 2.19583 9.27093 2.6375 8.6626C3.07917 8.05426 3.58333 7.5001 4.15 7.0001L2.075 4.9001C1.89167 4.7001 1.80417 4.4626 1.8125 4.1876C1.82083 3.9126 1.91667 3.68343 2.1 3.5001C2.28333 3.31676 2.51667 3.2251 2.8 3.2251C3.08333 3.2251 3.31667 3.31676 3.5 3.5001L20.5 20.5001C20.6833 20.6834 20.7792 20.9126 20.7875 21.1876C20.7958 21.4626 20.7 21.7001 20.5 21.9001C20.3167 22.0834 20.0833 22.1751 19.8 22.1751C19.5167 22.1751 19.2833 22.0834 19.1 21.9001L15.6 18.4501C15.0167 18.6334 14.425 18.7709 13.825 18.8626C13.225 18.9543 12.6167 19.0001 12 19.0001ZM5.55 8.4001C5.06667 8.83343 4.625 9.30843 4.225 9.8251C3.825 10.3418 3.48333 10.9001 3.2 11.5001C4.03333 13.1834 5.2375 14.5209 6.8125 15.5126C8.3875 16.5043 10.1167 17.0001 12 17.0001C12.3333 17.0001 12.6583 16.9793 12.975 16.9376C13.2917 16.8959 13.6167 16.8501 13.95 16.8001L13.05 15.8501C12.8667 15.9001 12.6917 15.9376 12.525 15.9626C12.3583 15.9876 12.1833 16.0001 12 16.0001C10.75 16.0001 9.6875 15.5626 8.8125 14.6876C7.9375 13.8126 7.5 12.7501 7.5 11.5001C7.5 11.3168 7.5125 11.1418 7.5375 10.9751C7.5625 10.8084 7.6 10.6334 7.65 10.4501L5.55 8.4001Z" fill="#111111"/>
</mask>
<g mask="url(#mask0_982_54171)">
<rect width="24" height="24" fill="#111111"/>
</g>
</svg>
