<svg width="36" height="36" viewBox="0 0 36 36" fill="none" xmlns="http://www.w3.org/2000/svg">
<mask id="mask0_2764_199992" style="mask-type:alpha" maskUnits="userSpaceOnUse" x="3" y="5" width="30" height="25">
<path fill-rule="evenodd" clip-rule="evenodd" d="M6 9.90078V26.1402C7.67303 25.5151 9.45068 25.1914 11.25 25.1914C13.0493 25.1914 14.827 25.5151 16.5 26.1402V9.90078C14.8676 9.10657 13.0727 8.69141 11.25 8.69141C9.4273 8.69141 7.63238 9.10657 6 9.90078ZM19.5 9.90078V26.1402C21.173 25.5151 22.9507 25.1914 24.75 25.1914C26.5493 25.1914 28.327 25.5151 30 26.1402V9.90078C28.3676 9.10657 26.5727 8.69141 24.75 8.69141C22.9273 8.69141 21.1324 9.10657 19.5 9.90078ZM18 7.29598C15.9099 6.24274 13.5984 5.69141 11.25 5.69141C8.61695 5.69141 6.03029 6.3845 3.75 7.70103C3.2859 7.96897 3 8.46416 3 9.00006V28.5001C3 29.036 3.2859 29.5312 3.75 29.7991C4.2141 30.0671 4.7859 30.0671 5.25 29.7991C7.07423 28.7459 9.14356 28.1914 11.25 28.1914C13.3564 28.1914 15.4258 28.7459 17.25 29.7991C17.7141 30.0671 18.2859 30.0671 18.75 29.7991C20.5742 28.7459 22.6436 28.1914 24.75 28.1914C26.8564 28.1914 28.9258 28.7459 30.75 29.7991C31.2141 30.0671 31.7859 30.0671 32.25 29.7991C32.7141 29.5312 33 29.036 33 28.5001V9.00006C33 8.46416 32.7141 7.96897 32.25 7.70103C29.9697 6.3845 27.383 5.69141 24.75 5.69141C22.4016 5.69141 20.0901 6.24274 18 7.29598Z" fill="#111111"/>
</mask>
<g mask="url(#mask0_2764_199992)">
<rect width="36" height="36" fill="#111111"/>
</g>
</svg>
