<svg width="24" height="24" viewBox="0 0 24 24" fill="none" xmlns="http://www.w3.org/2000/svg">
<mask id="mask0_1467_507880" style="mask-type:alpha" maskUnits="userSpaceOnUse" x="2" y="2" width="20" height="21">
<path d="M14.1371 2.73807C13.3941 3.48107 13.0091 4.77607 13.2891 5.79007C13.4381 6.32607 13.4621 6.97507 13.0691 7.36907L7.36907 13.0691C6.97507 13.4621 6.32607 13.4381 5.78907 13.2891C4.77607 13.0091 3.48107 13.3941 2.73807 14.1371C2.50412 14.371 2.31853 14.6486 2.19189 14.9542C2.06525 15.2598 2.00005 15.5874 2 15.9182C1.99991 16.5863 2.26522 17.2271 2.73757 17.6996C3.20992 18.1721 3.85062 18.4375 4.51871 18.4376C5.18681 18.4377 5.82759 18.1724 6.30007 17.7001C5.82772 18.1726 5.56241 18.8133 5.5625 19.4814C5.56259 20.1495 5.82808 20.7902 6.30057 21.2626C6.77305 21.7349 7.41382 22.0002 8.08192 22.0001C8.75002 22 9.39072 21.7346 9.86307 21.2621C10.6061 20.5191 10.9911 19.2241 10.7111 18.2101C10.5621 17.6741 10.5381 17.0251 10.9311 16.6311L16.6311 10.9311C17.0251 10.5381 17.6741 10.5621 18.2111 10.7111C19.2241 10.9911 20.5191 10.6061 21.2621 9.86307C21.7346 9.39072 22 8.75002 22.0001 8.08192C22.0002 7.41382 21.7349 6.77305 21.2626 6.30057C21.0287 6.06662 20.751 5.88103 20.4454 5.75439C20.1398 5.62775 19.8122 5.56255 19.4814 5.5625C18.8133 5.56241 18.1726 5.82772 17.7001 6.30007C18.1724 5.82758 18.4377 5.18681 18.4376 4.51871C18.4375 3.85062 18.1721 3.20992 17.6996 2.73757C17.2271 2.26522 16.5863 1.99991 15.9182 2C15.2501 2.00009 14.6094 2.26558 14.1371 2.73807Z" fill="#111111"/>
</mask>
<g mask="url(#mask0_1467_507880)">
<rect width="24" height="24" fill="#EC5501"/>
</g>
</svg>
