<svg width="24" height="24" viewBox="0 0 24 24" fill="none" xmlns="http://www.w3.org/2000/svg">
<mask id="mask0_1464_167508" style="mask-type:alpha" maskUnits="userSpaceOnUse" x="4" y="2" width="17" height="20">
<path d="M21 12.5575C21 18.3725 16.958 20.6215 13.832 21.2475C14.871 20.8805 16 19.9385 16 17.8905C16 16.5935 15.181 15.7925 14.54 15.4175C14.344 15.3025 14.116 15.4475 14.099 15.6735C14.043 16.3915 13.353 16.9635 12.884 16.4175C12.469 15.9355 12.294 15.2305 12.294 14.7795V14.1895C12.294 13.8355 11.937 13.5995 11.631 13.7815C10.495 14.4545 9 15.8405 9 17.8905C9 20.5057 11.1033 21.3175 12.4099 21.4318C12.2444 21.4406 12.0848 21.4465 11.933 21.4465C9.289 21.4465 4 19.6675 4 12.5565C4 9.77646 5.461 7.90646 6.86 6.84146C7.638 6.24746 8.63 6.83846 8.73 7.81246L8.816 8.65046C8.92 9.67046 9.85 10.5075 10.71 9.94846C12.394 8.85346 13 6.22146 13 4.77946V2.95146C13 2.23646 13.723 1.76346 14.342 2.12346C17.127 3.74246 21 7.26646 21 12.5575Z" fill="#EC5501"/>
</mask>
<g mask="url(#mask0_1464_167508)">
<rect width="24" height="24" fill="#FFFFFF"/>
</g>
</svg>
