<svg width="24" height="24" viewBox="0 0 24 24" fill="none" xmlns="http://www.w3.org/2000/svg">
<mask id="mask0_1467_507889" style="mask-type:alpha" maskUnits="userSpaceOnUse" x="2" y="2" width="20" height="20">
<path d="M10.9095 4.0013C9.95637 4.95478 9.40507 6.22547 9.08895 7.49996C8.77188 8.78017 8.67857 10.1166 8.67952 11.2625C8.67854 11.3436 8.64595 11.4212 8.58869 11.4786C8.53143 11.5361 8.45402 11.5689 8.37293 11.5701C6.68665 11.5768 4.54906 11.7797 2.81994 12.6056C2.17056 12.9161 1.8992 13.5562 2.03345 14.163C2.16009 14.7307 2.61903 15.1965 3.23984 15.3479C3.99681 15.5327 4.8747 15.7718 5.63833 16.0433C6.02014 16.1785 6.36197 16.3176 6.64 16.4567C6.92755 16.6014 7.1037 16.7234 7.19035 16.811C7.27699 16.8967 7.39982 17.073 7.5436 17.3606C7.68261 17.6388 7.82163 17.9798 7.95683 18.3617C8.22725 19.1247 8.46529 20.003 8.65001 20.7593C8.8014 21.3803 9.267 21.8404 9.83544 21.9661C10.442 22.1014 11.0818 21.8299 11.3922 21.1803C12.2177 19.4533 12.4206 17.3187 12.4301 15.6337C12.4301 15.4679 12.57 15.3279 12.7376 15.3279C13.8821 15.3279 15.2189 15.2346 16.4987 14.9174C17.7745 14.6002 19.0447 14.0486 19.9988 13.0942C21.0652 12.0274 21.587 10.609 21.8241 9.23072C22.0621 7.84859 22.0231 6.4436 21.9145 5.33294C21.8379 4.49733 21.4713 3.71493 20.8781 3.12159C20.285 2.52824 19.5029 2.16141 18.6677 2.08479C17.5575 1.97716 16.154 1.9381 14.7714 2.17528C13.3937 2.41342 11.9759 2.93541 10.9095 4.0013ZM16.2825 4.85572C16.535 4.85572 16.7772 4.95608 16.9558 5.13471C17.1344 5.31335 17.2347 5.55563 17.2347 5.80826C17.2347 6.06088 17.1344 6.30317 16.9558 6.4818C16.7772 6.66044 16.535 6.76079 16.2825 6.76079C16.03 6.76079 15.7878 6.66044 15.6092 6.4818C15.4307 6.30317 15.3304 6.06088 15.3304 5.80826C15.3304 5.55563 15.4307 5.31335 15.6092 5.13471C15.7878 4.95608 16.03 4.85572 16.2825 4.85572Z" fill="#111111"/>
</mask>
<g mask="url(#mask0_1467_507889)">
<rect width="24" height="24" fill="#ec5501"/>
</g>
</svg>
