<svg width="24" height="24" viewBox="0 0 24 24" fill="none" xmlns="http://www.w3.org/2000/svg">
<mask id="mask0_1467_507885" style="mask-type:alpha" maskUnits="userSpaceOnUse" x="2" y="2" width="20" height="20">
<path d="M10.1078 11.2606C10.1078 10.1842 10.1954 8.97258 10.4753 7.84383C10.7562 6.71126 11.2161 5.71491 11.9197 5.01194C12.7005 4.23086 13.7993 3.79269 15.0142 3.58313C16.2235 3.37548 17.4898 3.40596 18.5296 3.50693C19.0355 3.55154 19.5095 3.77293 19.8685 4.13226C20.2275 4.49159 20.4486 4.96591 20.493 5.47201C20.5939 6.51218 20.6244 7.77715 20.4168 8.98878C20.2073 10.2042 19.7693 11.3025 18.9885 12.0845C18.2849 12.7884 17.288 13.2495 16.1549 13.5305C15.0266 13.8105 13.8145 13.8991 12.7386 13.8991C11.7864 13.8991 11.0056 14.6726 11.0009 15.627C10.9933 17.2416 10.7914 19.1133 10.1097 20.5516C10.0722 20.517 10.0468 20.4712 10.0373 20.4211C9.83461 19.564 9.58961 18.7174 9.30319 17.8845C9.16573 17.4875 9.00452 17.0991 8.82044 16.7215C8.65096 16.3833 8.4472 16.048 8.20059 15.8004C7.95303 15.5527 7.61787 15.3489 7.2789 15.1793C6.90109 14.9951 6.51254 14.8339 6.11536 14.6964C5.28175 14.4106 4.43495 14.1649 3.57786 13.9601C3.52855 13.9504 3.48355 13.9254 3.44931 13.8886C4.88707 13.2057 6.76283 13.0056 8.37864 12.999C8.83786 12.9962 9.27736 12.8119 9.60128 12.4862C9.9252 12.1606 10.1073 11.72 10.1078 11.2606ZM10.9095 4.0013C9.95637 4.95478 9.40507 6.22547 9.08895 7.49996C8.77188 8.78017 8.67857 10.1166 8.67952 11.2625C8.67854 11.3436 8.64595 11.4212 8.58869 11.4786C8.53143 11.5361 8.45402 11.5689 8.37293 11.5701C6.68665 11.5768 4.54906 11.7797 2.81994 12.6056C2.17056 12.9161 1.8992 13.5562 2.03345 14.163C2.16009 14.7307 2.61903 15.1965 3.23984 15.3479C3.99681 15.5327 4.8747 15.7718 5.63833 16.0433C6.02014 16.1785 6.36197 16.3176 6.64 16.4567C6.92755 16.6014 7.1037 16.7234 7.19035 16.811C7.27699 16.8967 7.39982 17.073 7.5436 17.3606C7.68261 17.6388 7.82163 17.9798 7.95683 18.3617C8.22725 19.1247 8.46529 20.003 8.65001 20.7593C8.8014 21.3803 9.267 21.8404 9.83544 21.9661C10.442 22.1014 11.0818 21.8299 11.3922 21.1803C12.2177 19.4533 12.4206 17.3187 12.4301 15.6337C12.4301 15.4679 12.57 15.3279 12.7376 15.3279C13.8821 15.3279 15.2189 15.2346 16.4987 14.9174C17.7745 14.6002 19.0447 14.0486 19.9988 13.0942C21.0652 12.0274 21.587 10.609 21.8241 9.23072C22.0621 7.84859 22.0231 6.4436 21.9145 5.33294C21.8379 4.49733 21.4713 3.71493 20.8781 3.12159C20.285 2.52824 19.5029 2.16141 18.6677 2.08479C17.5575 1.97716 16.154 1.9381 14.7714 2.17528C13.3937 2.41246 11.9759 2.93541 10.9095 4.0013ZM16.2844 4.85572C16.5369 4.85572 16.7791 4.95608 16.9577 5.13471C17.1363 5.31335 17.2366 5.55563 17.2366 5.80826C17.2366 6.06088 17.1363 6.30317 16.9577 6.4818C16.7791 6.66044 16.5369 6.76079 16.2844 6.76079C16.0319 6.76079 15.7897 6.66044 15.6111 6.4818C15.4326 6.30317 15.3323 6.06088 15.3323 5.80826C15.3323 5.55563 15.4326 5.31335 15.6111 5.13471C15.7897 4.95608 16.0319 4.85572 16.2844 4.85572Z" fill="#111111"/>
</mask>
<g mask="url(#mask0_1467_507885)">
<rect width="24" height="24" fill="#EC5501"/>
</g>
</svg>
