<svg width="218" height="39" viewBox="0 0 218 39" fill="none" xmlns="http://www.w3.org/2000/svg">
<path d="M98.7914 19.9848C99.7517 21.4443 100.251 22.9422 100.251 24.4786C100.251 26.1301 99.6749 27.6665 98.5226 29.0876C97.5624 30.2783 95.4499 31.1232 92.1852 31.6226C92.1468 31.9682 92.1852 32.506 92.3004 33.2357C92.454 34.0423 92.5309 34.4648 92.5309 34.58C92.5309 35.233 92.3388 35.9243 91.9547 36.6541C91.7627 37.0382 91.3786 37.3454 90.7641 37.5759C90.1495 37.8063 89.4966 37.96 88.7668 37.96C87.653 37.96 86.808 37.6911 86.1551 37.115C85.5021 36.5773 85.1564 35.7707 85.0796 34.8105C84.6571 33.0821 84.4267 31.2769 84.4651 29.3565V23.6336C84.4651 23.48 84.5035 22.827 84.5803 21.6748C84.6571 20.6377 84.8492 19.7543 85.1564 19.063C85.5405 18.1412 86.1166 17.6035 86.8464 17.4114C88.5364 16.9889 90.0727 16.7969 91.4554 16.7969C94.8354 16.7969 97.2551 17.8723 98.7914 19.9848ZM93.3374 24.7858C93.5679 24.3633 93.6831 23.9409 93.6831 23.5568C93.6831 22.5581 92.9918 22.0204 91.6091 21.9052C91.5322 22.635 91.4554 23.2111 91.4554 23.5952C91.4554 24.1329 91.4554 24.5554 91.4938 24.8243C91.5322 25.2467 91.5706 25.8229 91.6475 26.591C91.8011 26.4374 92.0316 26.2454 92.3004 25.9765C92.7613 25.5156 93.107 25.1315 93.3374 24.7858Z" fill="#484848"/>
<path d="M117.842 35.6574C117.688 36.5408 117.112 37.0785 116.152 37.2705C115.691 37.3858 115.192 37.4242 114.692 37.4242C113.771 37.4242 113.002 37.2321 112.426 36.8096C112.004 36.3103 111.773 35.9646 111.696 35.811C111.466 35.3501 111.312 34.774 111.312 34.0442C110.544 34.0058 109.699 34.0442 108.739 34.1594C108.777 34.3131 108.816 34.5435 108.854 34.8892C108.854 35.619 108.624 36.3487 108.201 37.1553C107.664 37.8851 106.857 38.2307 105.782 38.2307C105.282 38.2307 104.629 38.1539 103.9 37.9619L103.861 37.9235C102.248 37.1937 101.441 35.3501 101.441 32.3927C101.441 32.2006 101.441 31.7397 101.48 31.0099C101.633 28.2445 101.902 26.0553 102.286 24.4805C102.863 22.2528 103.861 20.2556 105.282 18.4888C106.396 17.1445 108.009 16.4531 110.122 16.4531C112.388 16.4531 114.116 17.1061 115.268 18.4504C115.96 19.2185 116.421 20.1403 116.728 21.1774C117.765 24.903 118.303 28.1677 118.303 31.0099C118.264 32.6231 118.111 34.1979 117.842 35.6574ZM110.659 28.7054C110.775 27.2843 110.698 25.0566 110.391 21.984C110.275 21.8687 110.045 21.9071 109.776 22.0992C109.546 23.5971 109.354 24.8262 109.238 25.748C109.046 27.3995 108.969 28.3214 109.046 28.5518C109.123 28.7438 109.315 28.8591 109.546 28.8591C109.622 28.8591 109.814 28.8207 110.122 28.7823C110.429 28.7438 110.583 28.7054 110.659 28.7054Z" fill="#484848"/>
<path d="M122.413 18.0296C123.027 17.6071 123.642 17.3767 124.333 17.3767C125.754 17.3767 126.715 18.1448 127.137 19.6428C127.214 19.9116 127.329 20.7566 127.521 22.1393L127.598 26.7483C127.713 26.902 127.867 26.9788 128.021 26.9788C128.174 26.7867 128.251 26.4795 128.289 26.057L128.328 25.2504C128.558 24.5975 128.904 23.6757 129.403 22.4082C129.864 21.2943 130.671 20.6798 131.823 20.4877C132.63 20.4877 133.244 20.795 133.628 21.4864C133.897 21.9857 134.166 22.8307 134.32 24.0213C134.473 24.9815 134.512 25.5577 134.473 25.7881C134.358 26.1722 134.358 26.5947 134.512 27.0556C134.78 27.094 134.934 27.0556 134.934 26.8251C135.165 22.9459 135.856 20.1421 136.97 18.4137C137.315 17.876 137.699 17.4919 138.122 17.3382C138.391 17.1846 138.775 17.0694 139.313 17.031C140.234 16.9542 141.118 17.2614 141.924 18.0296C142.539 18.6057 142.846 19.3739 142.846 20.4109C142.846 20.795 142.693 21.7168 142.385 23.1379C142.078 24.8279 141.579 27.3629 140.887 30.7428C140.273 33.7387 139.274 35.928 137.892 37.3875C137.392 37.7716 136.739 37.9636 135.933 37.9636C134.972 37.9636 134.127 37.7332 133.321 37.3107C132.668 36.8114 132.245 36.1584 132.053 35.3134C131.9 34.6605 131.785 33.8539 131.785 32.8553C131.746 31.703 131.669 30.8965 131.593 30.474C131.4 30.3203 131.247 30.2435 131.093 30.2435C131.055 30.5124 130.901 31.5494 130.709 33.4314C130.555 34.8141 130.325 35.8511 130.056 36.5425C129.595 37.5795 128.712 38.1172 127.406 38.1941C125.294 38.3477 123.719 37.5027 122.605 35.6591C121.914 34.7757 121.376 33.4314 120.992 31.6262C120.608 29.821 120.416 27.8622 120.454 25.7113C120.608 21.448 121.222 18.8746 122.413 18.0296Z" fill="#484848"/>
<path d="M150.374 32.5841C151.104 32.4304 151.449 32.1232 151.449 31.6238C151.449 31.4318 151.373 31.2782 151.219 31.1245C151.065 30.9709 150.451 30.5868 149.414 29.9723C148.53 29.473 147.916 29.0121 147.532 28.6664C146.994 28.1671 146.495 27.5141 146.034 26.6692C145.458 25.5553 145.15 24.4415 145.15 23.2892C145.15 21.6376 145.842 20.1397 147.263 18.8338C148.799 17.3743 150.681 16.6445 152.832 16.6445C154.061 16.6445 155.213 16.9134 156.212 17.4511C156.827 17.7968 157.518 18.4497 158.209 19.4099C158.517 19.8324 158.67 20.2165 158.709 20.6006C158.709 21.0615 158.517 21.5992 158.017 22.2138L158.056 22.2522C157.441 23.0588 156.827 23.4428 156.174 23.4428C155.943 23.4428 155.636 23.4044 155.252 23.3276C154.637 23.174 154.292 22.6747 154.215 21.8297C154.176 21.484 153.908 21.3304 153.408 21.3304C153.139 21.3304 152.909 21.4072 152.717 21.5224C152.525 21.8681 152.41 22.2138 152.41 22.5978C152.41 23.2124 152.717 23.7117 153.331 24.0958C155.559 25.5937 156.865 26.5155 157.287 26.8612C158.709 28.1287 159.477 29.4346 159.554 30.8173C159.554 31.1629 159.592 31.5854 159.63 32.1616C159.669 34.4277 158.209 36.2329 155.213 37.5004C154.1 37.9613 153.024 38.2301 152.026 38.2301C151.872 38.2301 151.68 38.2301 151.411 38.1917L151.373 38.1533C147.724 37.6156 145.765 36.3097 145.496 34.3124C145.419 33.8515 145.381 33.5443 145.342 33.3522C145.304 33.1602 145.304 33.1218 145.304 33.1986C145.304 32.7377 145.458 32.3152 145.765 31.9695C146.072 31.6238 146.418 31.4318 146.802 31.4318C146.956 31.4318 147.493 31.6238 148.3 32.0463C149.145 32.4688 149.721 32.6609 150.028 32.6609C150.028 32.5841 150.182 32.5841 150.374 32.5841Z" fill="#484848"/>
<path d="M177.683 33.3516C177.222 34.8111 176.339 35.925 175.11 36.77C173.881 37.615 172.421 37.999 170.808 37.999C167.812 37.999 165.469 36.9236 163.818 34.8111C162.396 33.0059 161.705 30.8167 161.705 28.2433C161.705 27.0526 161.82 25.9772 162.051 24.9401C163.088 20.3311 165.277 17.7194 168.657 17.1432C168.964 17.1048 169.272 17.0664 169.617 17.0664C171.115 17.0664 172.613 17.5273 174.034 18.4875C175.455 19.4093 176.416 20.5616 176.915 21.9059C177.99 24.8249 178.49 27.091 178.49 28.7042C178.49 30.0869 178.182 31.6232 177.683 33.3516ZM170.654 31.4312C171.192 31.316 171.461 30.3173 171.461 28.4737C171.461 27.3983 171.346 26.3997 171.154 25.4779C170.962 24.5561 170.731 24.0952 170.462 24.0568C170.04 23.9415 169.656 24.364 169.31 25.3242C168.964 26.2844 168.811 27.3215 168.811 28.4737C168.849 30.6246 169.425 31.5848 170.654 31.4312Z" fill="#484848"/>
<path d="M201.265 34.4654C201.265 35.3872 201.073 36.117 200.689 36.6163C200.381 37.0388 199.959 37.2693 199.46 37.4229C199.191 37.4997 198.807 37.5765 198.307 37.6918C197.923 37.7686 197.654 37.807 197.539 37.807C196.733 37.807 196.041 37.4613 195.465 36.77C194.889 36.0786 194.62 35.2336 194.62 34.235C194.62 33.8509 194.735 32.9291 194.927 31.5464C195.081 30.4326 195.119 29.5876 194.966 28.9346C194.889 29.2035 194.582 30.0101 194.082 31.3544C193.429 33.0443 192.853 34.0814 192.354 34.4654C192.085 34.6959 191.739 34.7727 191.317 34.7727C191.01 34.7727 190.702 34.6575 190.395 34.4654C189.358 33.4668 188.59 31.5464 188.014 28.7042C187.937 29.1651 187.86 29.5876 187.86 30.0485C187.86 30.3173 187.937 31.1623 188.091 32.5834C188.206 33.582 188.206 34.3886 188.091 35.0032C187.937 35.7713 187.514 36.4627 186.862 37.0772C186.209 37.4229 185.556 37.6149 184.979 37.6149C184.135 37.6149 183.366 37.2693 182.675 36.5779C181.907 35.3488 181.446 34.5039 181.331 34.1198C181.062 33.3132 180.908 32.1225 180.908 30.5478C180.908 29.0883 181.023 26.4765 181.292 22.7508C181.369 21.445 181.792 20.3695 182.56 19.4477C183.29 18.5259 184.327 17.9114 185.594 17.5657C188.091 17.4889 190.011 19.5245 191.317 23.6342C191.394 22.8661 191.701 21.8675 192.2 20.6C192.93 18.7564 193.737 17.6425 194.62 17.22C195.503 16.9896 196.272 16.8359 196.886 16.8359C197.923 16.8359 198.73 17.1432 199.267 17.7193C199.997 18.3339 200.497 19.1404 200.765 20.1007C200.957 20.7536 201.073 21.7906 201.149 23.2117C201.149 24.5176 201.188 25.8235 201.188 27.1294C201.226 30.1253 201.265 32.5066 201.265 34.4654Z" fill="#484848"/>
<path d="M216.397 25.1328C216.474 25.4017 216.513 25.6705 216.474 25.9394C216.474 26.8612 216.052 27.6678 215.245 28.2823C214.515 28.8969 213.709 29.1273 212.864 29.0505C212.71 29.0121 212.441 28.9737 212.019 29.0121C212.057 29.2425 211.98 29.7803 211.827 30.7021C211.827 31.1246 212.019 31.4318 212.441 31.6623C213.21 31.4702 213.863 31.4702 214.323 31.6623C215.092 31.9311 215.514 32.4304 215.591 33.0834C215.668 33.8516 215.437 34.6197 214.9 35.3879C214.323 36.1561 213.555 36.8474 212.557 37.3467C211.673 37.8076 210.636 38.0765 209.407 38.0765C208.332 38.0765 207.41 37.8845 206.526 37.5388C206.181 37.3851 205.643 36.8858 204.913 36.0408C204.145 34.8502 203.723 32.3152 203.723 28.436C203.723 26.2083 203.915 23.6733 204.337 20.7927C204.568 19.1411 205.105 18.0657 205.874 17.5664L210.598 17.1055C211.404 16.9518 212.173 16.875 212.941 16.875C214.4 16.875 215.284 17.2207 215.552 17.912C215.668 18.1809 215.706 18.5266 215.706 18.8722C215.706 19.6404 215.399 20.2549 214.784 20.7159C214.17 21.1768 213.325 21.4456 212.249 21.4456C211.98 21.4456 211.788 21.4456 211.635 21.4456C211.52 21.7145 211.443 22.137 211.404 22.7131C211.366 23.4429 211.328 23.8653 211.328 23.9806C211.366 24.211 211.596 24.3647 211.942 24.4415C212.48 24.019 213.171 23.8269 214.016 23.8269C214.938 23.8653 215.745 24.2878 216.397 25.1328Z" fill="#484848"/>
<path d="M57.0794 28.2812L56.6953 29.9328C59.6912 30.6626 61.0739 33.1975 61.0739 37.9218H62.7639C62.7639 32.391 60.8434 29.1646 57.0794 28.2812Z" fill="#484848"/>
<path d="M16.2129 19.6021C16.2129 20.1015 16.597 20.4855 17.0963 20.4855C17.5956 20.4855 17.9797 20.1015 17.9797 19.6021C17.9797 19.1028 17.5956 18.7188 17.0963 18.7188C16.597 18.7188 16.2129 19.1028 16.2129 19.6021Z" fill="#484848"/>
<path d="M20.2447 18.6797C19.7454 18.6797 19.3613 19.0638 19.3613 19.5631C19.3613 20.0624 19.7454 20.4465 20.2447 20.4465C20.744 20.4465 21.1281 20.0624 21.1281 19.5631C21.1281 19.1022 20.744 18.6797 20.2447 18.6797Z" fill="#484848"/>
<path d="M64.606 19.9492C63.8763 19.9492 63.2617 20.5638 63.2617 21.2935C63.2617 22.0233 63.8763 22.6378 64.606 22.6378C65.3358 22.6378 65.9503 22.0233 65.9503 21.2935C65.9503 20.5253 65.3358 19.9492 64.606 19.9492Z" fill="#484848"/>
<path d="M76.2063 21.9832C74.9772 21.3687 73.7097 21.0614 72.5575 21.0614C69.9457 16.8365 65.7976 14.6856 60.382 14.8008H58.9224C57.847 14.8008 57.1172 14.5704 56.1954 13.2645C56.1186 13.1109 55.8498 12.5347 55.6193 12.1507C55.4657 11.8434 55.3504 11.6129 55.3504 11.6129C53.9293 9.07798 52.2009 6.73506 50.3189 4.89145C49.666 4.2385 48.7058 3.93123 47.784 4.08487C46.8622 4.2385 46.094 4.81463 45.6715 5.65962C45.5179 6.0053 45.1722 6.23575 44.7881 6.23575H38.7196C38.3355 6.23575 37.9898 6.0053 37.8362 5.65962C37.4137 4.81463 36.6455 4.2385 35.7237 4.08487C34.8019 3.93123 33.8801 4.20009 33.1887 4.89145C30.6922 7.15755 28.7333 9.88455 27.197 12.8804C25.8143 12.2659 24.278 11.9586 22.588 11.9586C18.363 11.9586 15.1367 13.7254 13.1779 17.0285C12.9859 17.3742 12.6018 17.6047 12.2177 17.6047L11.5263 17.6431C9.06819 17.7583 6.49482 17.8351 4.42076 18.1424C3.46055 18.296 2.57715 18.8337 2.00102 19.6403C1.38649 20.4853 1.15604 21.5607 1.38649 22.5978C2.53874 28.5511 5.64983 32.4688 10.4509 34.1203C9.87477 34.8885 9.22182 36.0792 8.87615 37.6923L10.5277 38.038C10.9118 36.2328 11.7952 35.1189 12.2561 34.6196C13.6388 34.9269 15.1367 35.0805 16.7883 35.0421L16.7499 33.3521C14.0997 33.3906 11.8336 32.9681 9.95158 32.0847C10.6429 32.0463 11.4111 31.9694 12.1793 31.8158C15.8665 31.086 18.4015 29.1656 19.5153 26.285L17.9406 25.6705C15.7129 31.3933 7.3014 30.3947 7.22458 30.3947C5.4962 28.8968 4.26713 26.7843 3.46055 24.1341C3.84463 24.3646 4.26713 24.4798 4.72803 24.4798H5.72665C7.18617 24.4798 8.33843 23.2891 8.33843 21.868C8.33843 20.9078 7.80071 20.0244 6.99413 19.5635C8.45365 19.4483 9.98999 19.4099 11.5263 19.333L12.2177 19.2946C13.2163 19.2562 14.0997 18.7185 14.599 17.8735C16.2122 15.1081 18.9392 13.6486 22.5496 13.6486C23.9707 13.6486 25.2766 13.9174 26.4288 14.4168C26.0063 15.377 25.6223 16.3756 25.2766 17.4126L26.8897 17.9503C27.197 17.0285 27.5427 16.1451 27.8884 15.3002C29.079 16.1451 30.0392 17.3358 30.6538 18.7569C31.3835 20.4085 31.614 20.9078 32.3053 27.9366C32.3822 28.5511 32.651 29.1272 33.1503 29.5113C34.0721 30.2795 34.2258 31.2781 34.2642 32.1999C34.3026 33.3521 33.9569 34.3508 33.2271 35.1189C32.4206 35.9255 31.1915 36.3864 29.8088 36.3096C27.1202 36.2328 25.507 34.658 25.2766 31.8926L25.2382 31.547C25.1229 28.167 25.3534 25.3632 26.0063 22.2137L24.3548 21.868C23.6634 25.1327 23.433 28.167 23.5482 31.6622L23.5866 32.0463C23.8939 35.6951 26.1984 37.9228 29.732 38.038C29.8088 38.038 29.8856 38.038 29.9624 38.038C31.7292 38.038 33.304 37.4235 34.3794 36.348C35.4548 35.2726 35.9926 33.8131 35.9157 32.1999C35.8773 31.0092 35.6469 29.4729 34.1874 28.2822C34.0721 28.167 33.9569 28.0134 33.9569 27.8213C33.2656 20.831 33.0351 20.0244 32.1517 18.104C31.3451 16.2604 30.0776 14.8008 28.5413 13.7638C30.0008 10.8832 31.8444 8.30981 34.1489 6.0437C34.4178 5.77484 34.8403 5.65962 35.2244 5.69803C35.6085 5.77484 35.9157 6.00529 36.1078 6.35097C36.5687 7.27278 37.4905 7.8489 38.5275 7.8489H42.9445C43.9047 10.6527 46.5549 12.65 49.666 12.65C51.0103 12.65 52.2393 12.2659 53.3148 11.6513C53.4684 11.8818 53.5837 12.1122 53.7373 12.3811L54.0061 12.8804C54.6207 14.1095 54.6207 14.1095 54.6591 14.1863C55.8113 15.8379 57.002 16.4908 58.8072 16.4908H60.2667C64.8373 16.414 68.2941 18.0272 70.5986 21.2919C69.4464 21.6376 68.5246 22.2905 68.0637 23.2123C67.4875 24.2877 67.6796 25.632 68.4093 26.9379C68.6014 27.2836 69.0623 27.4372 69.4464 27.2836C70.5986 26.7843 71.9045 26.4002 73.2872 26.1698C75.054 25.8625 76.7056 25.4016 78.2035 25.632C78.9717 25.7473 79.471 24.8255 78.9717 24.2493C78.3571 23.3659 77.3585 22.5978 76.2063 21.9832Z" fill="#484848"/>
<path d="M57.846 22.137V21.292L58.0381 20.4854C57.1931 20.2934 56.5017 19.8325 56.1176 19.1795C55.9256 18.8723 55.6952 18.3346 55.8488 17.72L54.1972 17.3359C53.9668 18.2577 54.1204 19.218 54.6581 20.0629C54.8502 20.3702 55.119 20.6775 55.3879 20.9463C53.0066 21.9834 51.3166 24.4415 51.3166 27.3222C51.3166 28.0519 51.4318 28.7817 51.6623 29.5114C51.7391 29.7035 51.6623 29.9339 51.547 30.0107C50.0491 30.9326 47.591 33.1602 47.6678 37.9229L49.3577 37.8845C49.2809 33.9668 51.2398 32.1616 52.4304 31.4703C53.237 30.971 53.5827 29.9723 53.3138 29.0121C53.1602 28.4744 53.045 27.8983 53.045 27.3606C53.0066 24.4415 55.1958 22.137 57.846 22.137Z" fill="#484848"/>
<path d="M8.87617 12.9177C8.91457 13.1098 8.91457 13.3018 8.99139 13.4939C9.10662 13.878 9.22184 14.3004 9.4907 14.6845C9.75956 14.3004 9.87479 13.878 9.99001 13.4939C10.0284 13.3018 10.0668 13.1098 10.1052 12.9177C10.2973 12.8793 10.4893 12.8793 10.6814 12.8025C11.0655 12.6873 11.4879 12.5721 11.872 12.3032C11.4879 12.0343 11.0655 11.9191 10.6814 11.8039C10.4893 11.7655 10.2973 11.7271 10.1052 11.6887C10.0668 11.4966 10.0668 11.3046 9.99001 11.1125C9.87479 10.7285 9.75956 10.306 9.4907 9.92188C9.22184 10.306 9.10662 10.7285 8.99139 11.1125C8.95298 11.3046 8.91457 11.4966 8.87617 11.6887C8.68412 11.7271 8.49208 11.7271 8.30004 11.8039C7.91595 11.9191 7.49346 12.0343 7.10938 12.3032C7.49346 12.5721 7.91595 12.6873 8.30004 12.8025C8.49208 12.8409 8.68412 12.8793 8.87617 12.9177Z" fill="#484848"/>
<path d="M67.7568 9.96336C67.3727 9.6945 66.9502 9.57927 66.5661 9.46405C66.3741 9.42564 66.182 9.38723 65.99 9.34882C65.9516 9.15678 65.9516 8.96474 65.8748 8.77269C65.7596 8.38861 65.6443 7.96612 65.3755 7.58203C65.1066 7.96612 64.9914 8.38861 64.8762 8.77269C64.8378 8.96474 64.7993 9.15678 64.7609 9.34882C64.5689 9.38723 64.3768 9.38723 64.1848 9.46405C63.8007 9.57927 63.3782 9.6945 62.9941 9.96336C63.3782 10.2322 63.8007 10.3474 64.1848 10.4627C64.3768 10.5011 64.5689 10.5395 64.7609 10.5779C64.7993 10.7699 64.7993 10.962 64.8762 11.154C64.9914 11.5381 65.1066 11.9606 65.3755 12.3447C65.6443 11.9606 65.7596 11.5381 65.8748 11.154C65.9132 10.962 65.9516 10.7699 65.99 10.5779C66.182 10.5395 66.3741 10.5395 66.5661 10.4627C66.9886 10.3474 67.3727 10.2322 67.7568 9.96336Z" fill="#484848"/>
<path d="M73.4414 27.6275C76.13 32.9279 76.1684 37.4217 76.1684 37.4601H77.0134H77.8584C77.8584 37.2681 77.82 32.5438 74.9777 26.8594L73.4414 27.6275Z" fill="#484848"/>
<path d="M38.5656 10.9225C38.5656 10.4231 38.1815 10.0391 37.6822 10.0391C37.1829 10.0391 36.7988 10.4231 36.7988 10.9225C36.7988 11.4218 37.1829 11.8059 37.6822 11.8059C38.1815 11.8059 38.5656 11.4218 38.5656 10.9225Z" fill="#484848"/>
<path d="M40.7935 10.0391C40.2942 10.0391 39.9102 10.4231 39.9102 10.9225C39.9102 11.4218 40.2942 11.8059 40.7935 11.8059C41.2929 11.8059 41.6769 11.4218 41.6769 10.9225C41.6769 10.4231 41.2929 10.0391 40.7935 10.0391Z" fill="#484848"/>
<path d="M39.9868 14.3768C40.3324 14.2232 40.6397 13.9159 40.6397 13.6087C40.6397 13.0709 40.2172 12.6484 39.6795 12.6484H38.9881C38.4504 12.6484 38.0279 13.0709 38.0279 13.6087C38.0279 13.9159 38.3352 14.2232 38.6809 14.3768C38.6041 15.0682 37.9895 15.6059 37.2598 15.6059V16.8734C38.0663 16.8734 38.8345 16.4893 39.3338 15.9132C39.8331 16.4893 40.5629 16.8734 41.4079 16.8734V15.6059C40.6781 15.6059 40.0636 15.0682 39.9868 14.3768Z" fill="#484848"/>
<path d="M36.3376 13.7629L33.9563 12.2266L33.3802 13.11L34.8781 14.1086L33.1113 14.7615L33.4954 15.7601L36.2224 14.7231C36.4145 14.6463 36.5297 14.4927 36.5681 14.3006C36.5681 14.0702 36.4913 13.8781 36.3376 13.7629Z" fill="#484848"/>
<path d="M45.2481 13.0709L44.672 12.1875L42.2906 13.7238C42.137 13.8391 42.0218 14.0311 42.0602 14.2232C42.0986 14.4152 42.2138 14.6072 42.4059 14.6456L45.1329 15.6827L45.5169 14.6841L43.7502 14.0311L45.2481 13.0709Z" fill="#484848"/>
<path d="M92.5684 7.62076H89.9566C89.7646 7.62076 89.6494 7.58235 89.5342 7.46712C89.4189 7.3519 89.3805 7.23667 89.3805 7.04463C89.3805 6.9294 89.4189 6.81418 89.5342 6.73736C89.6494 6.66054 89.7646 6.62214 89.9182 6.62214C89.9951 6.62214 90.0719 6.62213 90.1103 6.69895C90.1487 6.77577 90.1871 6.77577 90.1871 6.85259V6.89099C90.1871 7.00622 90.2639 7.04463 90.3791 7.04463H90.7248V6.54532H89.4189C89.2269 6.54532 89.1117 6.43009 89.1117 6.23805C89.1117 6.04601 89.2269 5.93078 89.4189 5.93078H89.4573C89.3805 5.85397 89.3037 5.81556 89.1885 5.77715C89.0733 5.70033 89.0733 5.62351 89.1885 5.50829C89.4573 5.23943 89.6878 4.93216 89.803 4.6633H86.3463C86.231 4.6633 86.1542 4.74012 86.1542 4.85534V4.89375C86.1542 4.97057 86.1926 5.04739 86.3078 5.04739H88.6124C88.8428 5.04739 88.958 5.16261 88.958 5.39306C88.958 5.62351 88.8428 5.73874 88.6124 5.73874H87.8442V6.04601H88.5739C88.766 6.04601 88.8812 6.16123 88.8812 6.35328C88.8812 6.54532 88.766 6.66054 88.5739 6.66054H87.8442V6.9294L88.6124 6.89099C88.8812 6.89099 88.9964 7.00622 88.9964 7.27508C88.9964 7.50553 88.8812 7.62076 88.6124 7.65916C86.884 7.77439 85.8853 7.8128 85.6549 7.85121C85.5397 7.85121 85.4629 7.85121 85.386 7.77439C85.3476 7.73598 85.3092 7.62076 85.2708 7.50553C85.2708 7.3519 85.2708 7.27508 85.3092 7.19826C85.3476 7.12145 85.4629 7.08304 85.5781 7.08304C85.9238 7.08304 86.3463 7.04463 86.8456 7.00622V6.66054H86.0774C85.8853 6.66054 85.8085 6.54532 85.8085 6.35328C85.8085 6.16123 85.8853 6.04601 86.0774 6.04601H86.8456V5.73874H86.0006C85.7701 5.73874 85.6165 5.62351 85.6165 5.35466V5.31625H85.2708C85.0788 5.31625 85.002 5.23943 85.002 5.04739V4.43285C85.002 4.24081 85.0788 4.08717 85.194 3.97195C85.3092 3.85672 85.4629 3.77991 85.6549 3.77991H88.6508C88.6508 3.43423 88.8428 3.24219 89.2269 3.24219C89.611 3.24219 89.803 3.43423 89.803 3.77991H92.7989C92.9909 3.77991 93.1446 3.85672 93.2598 3.97195C93.375 4.08717 93.4518 4.24081 93.4518 4.43285V4.6633C93.4518 4.85534 93.375 5.00898 93.2598 5.1242C93.1446 5.23943 92.9909 5.31625 92.7989 5.31625H92.6452V5.5467C92.6452 5.66192 92.6068 5.70033 92.4916 5.70033H91.5698V5.96919H92.9525C93.1446 5.96919 93.2598 6.08442 93.2598 6.27646C93.2598 6.4685 93.1446 6.58373 92.9525 6.58373H91.5698V7.04463H91.8771C92.0307 7.04463 92.1075 6.96781 92.1075 6.81418V6.69895C92.1075 6.66054 92.1075 6.66054 92.1459 6.66054H92.4532C92.7989 6.66054 92.9525 6.81418 92.9525 7.15985C93.0677 7.46712 92.9141 7.62076 92.5684 7.62076ZM86.8456 7.88962H91.9923C92.1843 7.88962 92.338 7.96643 92.4532 8.08166C92.5684 8.19688 92.6452 8.35052 92.6452 8.54256V10.5398C92.6452 10.7318 92.5684 10.8855 92.4532 11.0007C92.338 11.1159 92.1843 11.1927 91.9923 11.1927H91.5314C91.685 11.2312 92.1459 11.3848 92.9141 11.6152C93.183 11.6921 93.2982 11.8073 93.2982 11.9225C93.2982 12.0377 93.183 12.153 92.9141 12.345C92.6837 12.4986 92.4916 12.4986 92.338 12.4602C91.8387 12.2682 91.1473 12.0377 90.3023 11.7689C89.9182 11.6536 89.8798 11.5 90.1487 11.2696V11.2312H88.3435L88.6124 11.4232C88.6892 11.4616 88.7276 11.5 88.7276 11.5768C88.7276 11.6152 88.6892 11.6536 88.6508 11.6921C87.8826 12.0377 86.9992 12.3066 85.9622 12.4602C85.7317 12.4986 85.5397 12.4218 85.386 12.2682C85.0788 11.9225 85.1556 11.6921 85.6549 11.6152C86.1542 11.5 86.6919 11.3848 87.2681 11.1927H86.7303C86.5767 11.1927 86.4615 11.1543 86.3463 11.0391C86.2694 10.9623 86.1926 10.8087 86.1926 10.655V8.54256C86.1926 8.35052 86.2694 8.19688 86.3847 8.08166C86.4999 7.96643 86.6535 7.88962 86.8456 7.88962ZM91.3394 8.50415H87.5753C87.4217 8.50415 87.3449 8.58097 87.3449 8.7346V8.81142H91.493V8.61938C91.4546 8.54256 91.4162 8.50415 91.3394 8.50415ZM91.4546 9.38755H87.3065V9.69482H91.4546V9.38755ZM91.4546 10.2709H87.3065V10.463C87.3065 10.5398 87.3449 10.5782 87.4217 10.5782H91.1857C91.3394 10.5782 91.4162 10.5014 91.4162 10.3478V10.2709H91.4546ZM90.1103 5.70033C90.0719 5.77715 89.9567 5.85397 89.8414 5.96919H90.7248V5.70033H90.1103ZM92.2612 4.70171H89.9951L90.3407 4.77853C90.5328 4.81694 90.5712 4.93216 90.4944 5.0858V5.1242H92.4532V4.89375C92.4532 4.77853 92.3764 4.70171 92.2612 4.70171Z" fill="#484848"/>
<path d="M97.7148 8.38958H98.8286V7.89027C98.8286 7.54459 99.0207 7.35255 99.4048 7.35255C99.7504 7.35255 99.9425 7.54459 99.9425 7.89027V8.38958H100.672C101.018 8.38958 101.172 8.54322 101.172 8.88889C101.172 9.23457 101.018 9.42661 100.672 9.42661H99.9425V9.58024C100.096 9.65706 100.403 9.8491 100.864 10.1948C101.018 10.31 101.056 10.4252 101.056 10.502C101.056 10.5789 100.98 10.6941 100.864 10.8477C100.634 11.155 100.365 11.1934 100.096 10.8861L99.9041 10.6941V11.9616C99.9041 12.3072 99.712 12.4993 99.3664 12.4993C98.9823 12.4993 98.7902 12.3072 98.7902 11.9616V10.502C98.5214 10.9245 98.2525 11.3086 97.9452 11.6159C97.83 11.7311 97.7148 11.7695 97.5996 11.8079C97.5227 11.8463 97.4075 11.8079 97.3307 11.7695C97.2539 11.6927 97.1771 11.6159 97.1003 11.4623C96.9466 11.1166 97.0234 10.8477 97.3307 10.6173C97.7148 10.31 98.0221 9.88751 98.3293 9.42661H97.638C97.2923 9.42661 97.1003 9.23457 97.1003 8.88889C97.1771 8.54322 97.3307 8.38958 97.7148 8.38958ZM102.132 4.24146H105.051C105.396 4.24146 105.589 4.3951 105.589 4.74077C105.589 5.08645 105.396 5.27849 105.051 5.27849H103.207C103.745 5.73939 104.398 6.08507 105.204 6.39234C105.473 6.46916 105.627 6.58438 105.704 6.73802C105.781 6.89165 105.704 7.04528 105.55 7.27573C105.358 7.54459 105.089 7.583 104.744 7.46778C103.745 7.00687 102.862 6.39234 102.132 5.58576V7.1221C102.132 7.50619 101.94 7.69823 101.556 7.69823C101.172 7.69823 100.98 7.50619 100.98 7.1221V5.62417C100.288 6.43075 99.4432 7.04528 98.483 7.46778C98.1373 7.62141 97.9068 7.54459 97.7148 7.31414C97.4075 6.93006 97.5227 6.6612 98.0221 6.50756C98.7518 6.2003 99.4048 5.7778 99.9425 5.3169H98.2525C97.9068 5.3169 97.7532 5.12486 97.7532 4.77918C97.7532 4.43351 97.9068 4.27987 98.2525 4.27987H101.018V3.85738C101.018 3.47329 101.21 3.28125 101.594 3.28125C101.978 3.28125 102.17 3.47329 102.17 3.85738V4.24146H102.132ZM104.129 8.38958H105.55C105.896 8.38958 106.049 8.54322 106.049 8.88889C106.049 9.23457 105.896 9.42661 105.55 9.42661H104.667C104.974 9.92592 105.358 10.3484 105.781 10.6941C105.973 10.8477 106.088 11.0014 106.126 11.1166C106.165 11.2318 106.088 11.4239 105.934 11.6159C105.781 11.8079 105.665 11.8848 105.512 11.8848C105.396 11.8848 105.243 11.8079 105.089 11.6159C104.782 11.2318 104.475 10.7709 104.167 10.2332V11.9232C104.167 12.2688 103.975 12.4609 103.63 12.4609C103.284 12.4609 103.092 12.2688 103.092 11.9232V10.2332C102.746 10.8477 102.324 11.347 101.901 11.7311C101.632 11.9616 101.364 11.9232 101.172 11.6543C101.018 11.4623 100.98 11.347 100.98 11.1934C101.018 11.0782 101.133 10.9245 101.325 10.8093C101.825 10.4252 102.209 9.92592 102.516 9.34979H102.055C101.709 9.34979 101.556 9.15775 101.556 8.81207C101.556 8.4664 101.709 8.31276 102.055 8.31276H103.092V7.77505C103.092 7.42937 103.284 7.23733 103.63 7.23733C103.975 7.23733 104.167 7.42937 104.167 7.77505V8.38958H104.129Z" fill="#484848"/>
<path d="M113.694 7.96578H109.891C109.622 7.96578 109.469 7.81215 109.469 7.54329C109.469 7.27443 109.622 7.12079 109.891 7.12079H110.429C110.391 6.96716 110.352 6.77512 110.237 6.54467C110.199 6.46785 110.237 6.46785 110.314 6.42944H110.045C109.776 6.42944 109.661 6.31421 109.661 6.04535C109.661 5.7765 109.776 5.66127 110.045 5.66127H111.312V5.62286C111.312 5.27718 111.466 5.12355 111.812 5.12355C112.157 5.12355 112.311 5.27718 112.311 5.62286V5.66127H113.54C113.809 5.66127 113.924 5.7765 113.924 6.04535C113.924 6.31421 113.809 6.42944 113.54 6.42944H113.271C113.348 6.42944 113.386 6.46785 113.386 6.46785C113.386 6.46785 113.386 6.46785 113.386 6.50626C113.31 6.77512 113.194 6.96716 113.118 7.12079H113.617C113.886 7.12079 114.039 7.27443 114.039 7.54329C114.039 7.81215 113.963 7.96578 113.694 7.96578ZM116.805 4.81628H110.928C110.775 4.81628 110.698 4.8931 110.698 5.04673C110.698 5.16196 110.659 5.23878 110.583 5.31559C110.506 5.39241 110.391 5.43082 110.275 5.43082C110.083 5.43082 109.93 5.39241 109.853 5.27718C109.738 5.20037 109.699 5.04673 109.699 4.8931V4.35538C109.699 4.20175 109.738 4.08652 109.853 4.0097C109.93 3.93289 110.045 3.85607 110.199 3.85607H113.386V3.77925C113.386 3.39517 113.578 3.20312 113.963 3.20312C114.347 3.20312 114.539 3.39517 114.539 3.77925V3.85607H117.611C117.803 3.85607 117.957 3.93289 118.072 4.04811C118.187 4.16334 118.264 4.31697 118.264 4.50901V4.8931C118.264 5.08514 118.187 5.20037 118.072 5.27718C117.957 5.354 117.803 5.43082 117.611 5.43082C117.496 5.43082 117.381 5.39241 117.304 5.31559C117.227 5.23878 117.189 5.16196 117.189 5.04673C117.035 4.8931 116.958 4.81628 116.805 4.81628ZM110.659 8.31146H113.041C113.233 8.31146 113.386 8.38827 113.502 8.5035C113.617 8.61872 113.694 8.77236 113.694 8.9644V11.5762C113.694 11.8066 113.655 11.9603 113.617 12.0755C113.578 12.1907 113.463 12.2675 113.31 12.3443C113.118 12.4212 112.849 12.4596 112.503 12.4596C112.196 12.4596 112.004 12.3443 111.927 12.1523C111.85 11.9603 111.888 11.845 111.965 11.7682C112.042 11.6914 112.196 11.653 112.388 11.653H112.465C112.58 11.653 112.618 11.6146 112.618 11.4994V11.0385H111.005V11.9219C111.005 12.2675 110.851 12.4212 110.506 12.4212C110.16 12.4212 110.006 12.2675 110.006 11.9219V8.9644C110.006 8.77236 110.083 8.61872 110.199 8.5035C110.314 8.38827 110.467 8.31146 110.659 8.31146ZM111.043 9.4253H112.657V9.19485C112.657 9.11803 112.618 9.04122 112.503 9.04122H111.274C111.12 9.04122 111.043 9.11803 111.043 9.27167V9.4253ZM112.657 10.0782H111.043V10.4623H112.657V10.0782ZM112.196 7.12079C112.311 6.81352 112.388 6.58307 112.426 6.42944H111.197C111.312 6.73671 111.389 6.96716 111.428 7.12079H112.196ZM117.688 6.39103H115.384V6.58307C115.384 6.65989 115.422 6.6983 115.499 6.6983H117.342C117.535 6.6983 117.688 6.77512 117.803 6.89034C117.919 7.00557 117.995 7.1592 117.995 7.35124V7.85055C117.995 8.0426 117.919 8.19623 117.803 8.31146C117.688 8.42668 117.535 8.5035 117.342 8.5035H115.614C115.46 8.5035 115.384 8.58032 115.384 8.73395V8.81077H117.458C117.65 8.81077 117.765 8.92599 117.765 9.11803C117.765 9.31008 117.65 9.4253 117.458 9.4253H115.384V9.73257H117.381C117.573 9.73257 117.688 9.8478 117.688 10.0398C117.688 10.2319 117.573 10.3471 117.381 10.3471H115.384V10.6544H117.458C117.611 10.6544 117.727 10.6928 117.803 10.7696C117.88 10.8464 117.919 10.9616 117.919 11.1153V11.1537C118.111 11.2305 118.187 11.2689 118.264 11.2689C118.418 11.3073 118.495 11.461 118.456 11.7298C118.38 12.0371 118.264 12.2291 118.072 12.3443C117.88 12.4596 117.65 12.5364 117.266 12.5364H115.691C115.153 12.5364 114.769 12.4596 114.577 12.2675C114.385 12.1139 114.27 11.7682 114.27 11.2689V8.5035C114.27 8.31146 114.347 8.15782 114.462 8.0426C114.577 7.92737 114.731 7.85055 114.923 7.85055H116.651C116.766 7.85055 116.843 7.77374 116.843 7.65851V7.6201C116.843 7.50488 116.805 7.46647 116.69 7.46647H114.923C114.731 7.46647 114.577 7.38965 114.462 7.27443C114.347 7.1592 114.27 7.00557 114.27 6.81352V5.69968C114.27 5.354 114.462 5.16196 114.808 5.16196C115.153 5.16196 115.345 5.354 115.345 5.69968V5.73809H117.65C117.88 5.73809 118.034 5.85331 118.034 6.08376C118.034 6.27581 117.919 6.39103 117.688 6.39103ZM117.573 11.1537H115.384C115.384 11.3073 115.422 11.4225 115.46 11.461C115.499 11.4994 115.653 11.5378 115.883 11.5378H117.189C117.304 11.5378 117.419 11.4994 117.458 11.461C117.496 11.4225 117.535 11.3073 117.573 11.1537Z" fill="#484848"/>
<path d="M124.37 8.96538V11.9612C124.37 12.3069 124.178 12.499 123.832 12.499C123.487 12.499 123.295 12.3069 123.295 11.9612V9.31106C123.179 9.34947 123.026 9.38787 122.795 9.46469C122.603 9.54151 122.45 9.57992 122.334 9.61833C121.95 9.73355 121.758 9.57992 121.643 9.19583C121.605 9.00379 121.605 8.85016 121.643 8.73493C121.681 8.61971 121.797 8.54289 121.989 8.50448C122.526 8.35085 122.949 8.27403 123.218 8.1588V6.27679H122.565C122.488 6.58405 122.45 6.81451 122.373 7.00655C122.296 7.19859 122.219 7.31382 122.104 7.35222C121.989 7.39063 121.874 7.35222 121.681 7.237C121.566 7.16018 121.489 7.08337 121.451 7.00655C121.413 6.92973 121.413 6.81451 121.489 6.66087C121.681 6.00793 121.797 5.23976 121.874 4.35636C121.912 3.97228 122.104 3.81864 122.411 3.89546C122.718 3.93387 122.872 4.12591 122.834 4.43318C122.795 4.70204 122.757 4.93249 122.718 5.16294H123.179V3.81864C123.179 3.47297 123.371 3.28092 123.717 3.28092C124.063 3.28092 124.255 3.47297 124.255 3.81864V5.12453H124.524C124.908 5.12453 125.1 5.31657 125.1 5.70066C125.1 6.08474 124.908 6.27679 124.524 6.27679H124.37V7.88994L124.716 7.77472C125.061 7.65949 125.292 7.81313 125.33 8.19721C125.369 8.50448 125.253 8.73493 124.946 8.81175C124.869 8.85016 124.793 8.85016 124.639 8.92697C124.524 8.92697 124.447 8.96538 124.37 8.96538ZM127.02 4.77885H130.055C130.285 4.77885 130.439 4.85567 130.515 5.04771C130.631 5.23976 130.669 5.58543 130.631 6.04634C130.554 8.00517 130.439 9.38787 130.362 10.2329C130.247 11.0778 130.131 11.6156 129.939 11.8076C129.786 12.0381 129.632 12.1917 129.44 12.2685C129.248 12.3453 129.017 12.3837 128.672 12.3837C128.288 12.3837 128.019 12.2301 127.942 11.9228C127.865 11.654 127.904 11.5003 128.019 11.3851C128.134 11.2699 128.326 11.2315 128.595 11.2699H128.633C128.787 11.2699 128.902 11.1931 129.017 11.0778C129.286 10.7706 129.478 9.00379 129.594 5.85429H129.555C129.325 7.08337 128.979 8.23562 128.518 9.31106C128.057 10.3865 127.52 11.2315 126.867 11.9228C126.713 12.0381 126.598 12.1149 126.483 12.1149C126.367 12.1149 126.252 12.0765 126.098 11.9612C125.906 11.8076 125.791 11.6924 125.791 11.5388C125.791 11.4235 125.868 11.2699 126.06 11.1163C126.675 10.5401 127.174 9.77196 127.596 8.85016C128.019 7.92835 128.365 6.92973 128.595 5.85429H128.134C127.942 6.62246 127.673 7.35222 127.328 8.04358C126.982 8.77334 126.636 9.34947 126.214 9.81037C126.098 9.964 125.983 10.0024 125.868 10.0408C125.753 10.0408 125.638 10.0024 125.484 9.88719C125.292 9.73355 125.215 9.61833 125.215 9.5031C125.215 9.38788 125.292 9.23424 125.445 9.08061C126.175 8.31244 126.713 7.19859 127.174 5.81588H126.675C126.444 6.3536 126.214 6.7761 125.983 7.12177C125.868 7.27541 125.753 7.39063 125.638 7.39063C125.522 7.42904 125.369 7.35222 125.215 7.237C125.061 7.12177 124.946 6.96814 124.946 6.89132C124.908 6.7761 124.985 6.62246 125.1 6.46883C125.561 5.77748 125.945 4.85567 126.252 3.74182C126.329 3.35774 126.559 3.20411 126.905 3.28092C127.251 3.35774 127.404 3.54978 127.328 3.89546C127.289 4.01068 127.251 4.12591 127.212 4.31795C127.174 4.50999 127.02 4.70204 127.02 4.77885Z" fill="#484848"/>
</svg>
