<svg width="16" height="16" viewBox="0 0 24 24" fill="none" xmlns="http://www.w3.org/2000/svg">
<mask id="mask0_1092_54071" style="mask-type:alpha" maskUnits="userSpaceOnUse" x="3" y="3" width="18" height="18">
<path d="M6.51552 21C6.03218 21 5.60302 20.8417 5.22802 20.525C4.85302 20.2083 4.62385 19.8083 4.54052 19.325L3.01552 10.175C2.96552 9.875 3.03635 9.60417 3.22802 9.3625C3.41968 9.12083 3.67385 9 3.99052 9H19.6405C19.9572 9 20.2113 9.12083 20.403 9.3625C20.5947 9.60417 20.6655 9.875 20.6155 10.175L19.0905 19.325C19.0072 19.8083 18.778 20.2083 18.403 20.525C18.028 20.8417 17.5989 21 17.1155 21H6.51552ZM5.21552 11L6.49052 19H17.1405L18.4155 11H5.21552ZM9.81552 15H13.8155C14.0989 15 14.3364 14.9042 14.528 14.7125C14.7197 14.5208 14.8155 14.2833 14.8155 14C14.8155 13.7167 14.7197 13.4792 14.528 13.2875C14.3364 13.0958 14.0989 13 13.8155 13H9.81552C9.53218 13 9.29468 13.0958 9.10302 13.2875C8.91135 13.4792 8.81552 13.7167 8.81552 14C8.81552 14.2833 8.91135 14.5208 9.10302 14.7125C9.29468 14.9042 9.53218 15 9.81552 15ZM5.81552 8C5.53218 8 5.29468 7.90417 5.10302 7.7125C4.91135 7.52083 4.81552 7.28333 4.81552 7C4.81552 6.71667 4.91135 6.47917 5.10302 6.2875C5.29468 6.09583 5.53218 6 5.81552 6H17.8155C18.0989 6 18.3364 6.09583 18.528 6.2875C18.7197 6.47917 18.8155 6.71667 18.8155 7C18.8155 7.28333 18.7197 7.52083 18.528 7.7125C18.3364 7.90417 18.0989 8 17.8155 8H5.81552ZM7.81552 5C7.53218 5 7.29468 4.90417 7.10302 4.7125C6.91135 4.52083 6.81552 4.28333 6.81552 4C6.81552 3.71667 6.91135 3.47917 7.10302 3.2875C7.29468 3.09583 7.53218 3 7.81552 3H15.8155C16.0989 3 16.3364 3.09583 16.528 3.2875C16.7197 3.47917 16.8155 3.71667 16.8155 4C16.8155 4.28333 16.7197 4.52083 16.528 4.7125C16.3364 4.90417 16.0989 5 15.8155 5H7.81552Z" fill="#212121"/>
</mask>
<g mask="url(#mask0_1092_54071)">
<rect width="24" height="24" fill="#111111"/>
</g>
</svg>
