<svg width="24" height="24" viewBox="0 0 24 24" fill="none" xmlns="http://www.w3.org/2000/svg">
<path d="M14.5768 9.225V13.0339C14.5768 13.1304 14.5018 13.2054 14.4054 13.2054H13.7946C13.7357 13.2054 13.6821 13.1732 13.6554 13.1357L11.9089 10.7786V13.0393C11.9089 13.1357 11.8339 13.2107 11.7375 13.2107H11.1268C11.0304 13.2107 10.9554 13.1357 10.9554 13.0393V9.23036C10.9554 9.13393 11.0304 9.05893 11.1268 9.05893H11.7321C11.7857 9.05893 11.8446 9.08572 11.8714 9.13393L13.6179 11.4911V9.23036C13.6179 9.13393 13.6929 9.05893 13.7893 9.05893H14.4C14.4964 9.05357 14.5768 9.13393 14.5768 9.225ZM10.1839 9.05357H9.57322C9.47679 9.05357 9.40179 9.12857 9.40179 9.225V13.0339C9.40179 13.1304 9.47679 13.2054 9.57322 13.2054H10.1839C10.2804 13.2054 10.3554 13.1304 10.3554 13.0339V9.225C10.3554 9.13393 10.2804 9.05357 10.1839 9.05357ZM8.71072 12.2464H7.04465V9.225C7.04465 9.12857 6.96965 9.05357 6.87322 9.05357H6.26251C6.16608 9.05357 6.09108 9.12857 6.09108 9.225V13.0339C6.09108 13.0821 6.10715 13.1196 6.13929 13.1518C6.17143 13.1786 6.20893 13.2 6.25715 13.2H8.70536C8.80179 13.2 8.87679 13.125 8.87679 13.0286V12.4179C8.87679 12.3268 8.80179 12.2464 8.71072 12.2464ZM17.7911 9.05357H15.3429C15.2518 9.05357 15.1714 9.12857 15.1714 9.225V13.0339C15.1714 13.125 15.2464 13.2054 15.3429 13.2054H17.7911C17.8875 13.2054 17.9625 13.1304 17.9625 13.0339V12.4232C17.9625 12.3268 17.8875 12.2518 17.7911 12.2518H16.125V11.6089H17.7911C17.8875 11.6089 17.9625 11.5339 17.9625 11.4375V10.8214C17.9625 10.725 17.8875 10.65 17.7911 10.65H16.125V10.0071H17.7911C17.8875 10.0071 17.9625 9.93215 17.9625 9.83572V9.225C17.9571 9.13393 17.8821 9.05357 17.7911 9.05357ZM24 4.37679V19.6607C23.9946 22.0607 22.0286 24.0053 19.6232 24H4.33929C1.93929 23.9946 -0.0053461 22.0232 1.10419e-05 19.6232V4.33929C0.00536818 1.93929 1.97679 -0.0053461 4.37679 1.10419e-05H19.6607C22.0607 0.00536818 24.0053 1.97144 24 4.37679ZM20.7 10.9446C20.7 7.03393 16.7786 3.85179 11.9625 3.85179C7.14643 3.85179 3.22501 7.03393 3.22501 10.9446C3.22501 14.4482 6.33215 17.3839 10.5321 17.9411C11.5554 18.1607 11.4375 18.5357 11.2071 19.9125C11.1696 20.1321 11.0304 20.775 11.9625 20.3839C12.8946 19.9928 16.9929 17.4214 18.8304 15.3107C20.0946 13.9179 20.7 12.5089 20.7 10.9446Z" fill="#06C755"/>
</svg>
