<svg width="170" height="37" viewBox="0 0 170 37" fill="none" xmlns="http://www.w3.org/2000/svg">
<path d="M77.236 18.8701C77.9664 19.9802 78.3462 21.1196 78.3462 22.2882C78.3462 23.5444 77.9079 24.713 77.0315 25.7939C76.3012 26.6995 74.6944 27.3422 72.2112 27.722C72.1819 27.9849 72.2112 28.3939 72.2988 28.949C72.4157 29.5625 72.4741 29.8839 72.4741 29.9715C72.4741 30.4682 72.328 30.994 72.0359 31.5491C71.8898 31.8412 71.5977 32.0749 71.1302 32.2502C70.6628 32.4255 70.1662 32.5424 69.6111 32.5424C68.7639 32.5424 68.1212 32.3379 67.6245 31.8997C67.1279 31.4907 66.8649 30.8772 66.8065 30.1468C66.4852 28.8322 66.3099 27.4591 66.3391 25.9984V21.6455C66.3391 21.5286 66.3683 21.032 66.4267 20.1555C66.4852 19.3667 66.6312 18.6948 66.8649 18.169C67.1571 17.4678 67.5953 17.0588 68.1504 16.9127C69.4358 16.5914 70.6044 16.4453 71.6561 16.4453C74.2269 16.4453 76.0674 17.2633 77.236 18.8701ZM73.0876 22.5219C73.2629 22.2005 73.3505 21.8792 73.3505 21.587C73.3505 20.8275 72.8247 20.4185 71.7729 20.3308C71.7145 20.8859 71.6561 21.3241 71.6561 21.6162C71.6561 22.0252 71.6561 22.3466 71.6853 22.5511C71.7145 22.8725 71.7437 23.3107 71.8022 23.895C71.919 23.7781 72.0943 23.632 72.2988 23.4275C72.6494 23.077 72.9123 22.7848 73.0876 22.5219Z" fill="#484848"/>
<path d="M91.7264 30.7907C91.6096 31.4627 91.1714 31.8717 90.441 32.0177C90.0905 32.1054 89.7107 32.1346 89.3309 32.1346C88.6297 32.1346 88.0455 31.9885 87.6072 31.6672C87.2859 31.2874 87.1106 31.0244 87.0522 30.9076C86.8769 30.557 86.76 30.1188 86.76 29.5637C86.1757 29.5345 85.533 29.5637 84.8027 29.6514C84.8319 29.7682 84.8611 29.9435 84.8903 30.2064C84.8903 30.7615 84.715 31.3166 84.3937 31.9301C83.9847 32.4852 83.3712 32.7481 82.5532 32.7481C82.1734 32.7481 81.6767 32.6897 81.1217 32.5436L81.0925 32.5144C79.8655 31.9593 79.252 30.557 79.252 28.3075C79.252 28.1614 79.252 27.8109 79.2812 27.2558C79.398 25.1524 79.6025 23.4872 79.8947 22.2894C80.3329 20.5949 81.0925 19.0758 82.1734 17.732C83.0206 16.7095 84.2476 16.1836 85.8544 16.1836C87.578 16.1836 88.8927 16.6802 89.7691 17.7027C90.2949 18.287 90.6455 18.9882 90.8792 19.777C91.668 22.6107 92.077 25.0939 92.077 27.2558C92.0478 28.4828 91.9309 29.6806 91.7264 30.7907ZM86.2634 25.5029C86.351 24.422 86.2926 22.7276 86.0589 20.3904C85.9712 20.3028 85.796 20.332 85.5915 20.4781C85.4162 21.6174 85.2701 22.5523 85.1825 23.2534C85.0364 24.5097 84.978 25.2108 85.0364 25.3861C85.0948 25.5322 85.2409 25.6198 85.4162 25.6198C85.4746 25.6198 85.6207 25.5906 85.8544 25.5614C86.0881 25.5322 86.2049 25.5029 86.2634 25.5029Z" fill="#484848"/>
<path d="M95.2026 17.3816C95.67 17.0602 96.1374 16.8849 96.6633 16.8849C97.7442 16.8849 98.4746 17.4692 98.7959 18.6086C98.8544 18.8131 98.942 19.4558 99.0881 20.5075L99.1465 24.0132C99.2342 24.1301 99.351 24.1885 99.4679 24.1885C99.5847 24.0424 99.6432 23.8087 99.6724 23.4873L99.7016 22.8738C99.8769 22.3772 100.14 21.6761 100.52 20.712C100.87 19.8648 101.484 19.3973 102.36 19.2513C102.974 19.2513 103.441 19.485 103.733 20.0108C103.938 20.3906 104.142 21.0333 104.259 21.939C104.376 22.6693 104.405 23.1076 104.376 23.2828C104.288 23.575 104.288 23.8963 104.405 24.2469C104.61 24.2761 104.726 24.2469 104.726 24.0716C104.902 21.121 105.428 18.9883 106.275 17.6737C106.538 17.2647 106.83 16.9726 107.151 16.8557C107.356 16.7388 107.648 16.6512 108.057 16.622C108.758 16.5636 109.43 16.7973 110.043 17.3816C110.511 17.8198 110.745 18.4041 110.745 19.1928C110.745 19.485 110.628 20.1861 110.394 21.2671C110.16 22.5525 109.781 24.4806 109.255 27.0515C108.787 29.3302 108.028 30.9954 106.976 32.1056C106.596 32.3977 106.1 32.5438 105.486 32.5438C104.756 32.5438 104.113 32.3685 103.499 32.0471C103.003 31.6673 102.681 31.1707 102.535 30.528C102.419 30.0313 102.331 29.4178 102.331 28.6583C102.302 27.7818 102.243 27.1683 102.185 26.847C102.039 26.7301 101.922 26.6717 101.805 26.6717C101.776 26.8762 101.659 27.665 101.513 29.0965C101.396 30.1482 101.221 30.937 101.016 31.4628C100.666 32.2516 99.9937 32.6606 99.0004 32.7191C97.3937 32.8359 96.1959 32.1932 95.3487 30.7909C94.8228 30.119 94.4138 29.0965 94.1217 27.7234C93.8295 26.3503 93.6834 24.8604 93.7127 23.2244C93.8295 19.9816 94.2969 18.0243 95.2026 17.3816Z" fill="#484848"/>
<path d="M116.471 28.452C117.026 28.3352 117.289 28.1015 117.289 27.7217C117.289 27.5756 117.231 27.4588 117.114 27.3419C116.997 27.225 116.53 26.9329 115.741 26.4655C115.069 26.0857 114.601 25.7351 114.309 25.4722C113.9 25.0924 113.521 24.5958 113.17 23.953C112.732 23.1058 112.498 22.2586 112.498 21.3822C112.498 20.126 113.024 18.9866 114.105 17.9933C115.273 16.8832 116.705 16.3281 118.341 16.3281C119.276 16.3281 120.152 16.5326 120.912 16.9416C121.379 17.2046 121.905 17.7012 122.431 18.4316C122.665 18.7529 122.781 19.0451 122.811 19.3372C122.811 19.6878 122.665 20.0968 122.285 20.5642L122.314 20.5934C121.847 21.2069 121.379 21.499 120.883 21.499C120.707 21.499 120.474 21.4698 120.181 21.4114C119.714 21.2946 119.451 20.9148 119.393 20.2721C119.363 20.0091 119.159 19.8923 118.779 19.8923C118.575 19.8923 118.399 19.9507 118.253 20.0383C118.107 20.3013 118.02 20.5642 118.02 20.8563C118.02 21.3238 118.253 21.7036 118.721 21.9957C120.415 23.1351 121.408 23.8362 121.73 24.0991C122.811 25.0632 123.395 26.0565 123.453 27.1082C123.453 27.3711 123.483 27.6925 123.512 28.1307C123.541 29.8543 122.431 31.2274 120.152 32.1915C119.305 32.542 118.487 32.7465 117.727 32.7465C117.611 32.7465 117.464 32.7465 117.26 32.7173L117.231 32.6881C114.455 32.2791 112.965 31.2858 112.761 29.7667C112.703 29.4161 112.673 29.1824 112.644 29.0363C112.615 28.8903 112.615 28.861 112.615 28.9195C112.615 28.5689 112.732 28.2475 112.965 27.9846C113.199 27.7217 113.462 27.5756 113.754 27.5756C113.871 27.5756 114.28 27.7217 114.894 28.043C115.536 28.3644 115.975 28.5105 116.208 28.5105C116.208 28.452 116.325 28.452 116.471 28.452Z" fill="#484848"/>
<path d="M137.241 29.0392C136.89 30.1493 136.219 30.9966 135.284 31.6393C134.349 32.282 133.239 32.5741 132.012 32.5741C129.733 32.5741 127.951 31.7561 126.695 30.1493C125.614 28.7763 125.088 27.1111 125.088 25.1537C125.088 24.2481 125.176 23.4301 125.351 22.6413C126.14 19.1356 127.805 17.149 130.376 16.7108C130.609 16.6816 130.843 16.6523 131.106 16.6523C132.245 16.6523 133.385 17.0029 134.466 17.7333C135.547 18.4344 136.277 19.3108 136.657 20.3333C137.475 22.5536 137.855 24.2773 137.855 25.5043C137.855 26.556 137.621 27.7246 137.241 29.0392ZM131.895 27.5785C132.304 27.4908 132.508 26.7313 132.508 25.329C132.508 24.511 132.421 23.7514 132.275 23.0503C132.129 22.3491 131.953 21.9986 131.749 21.9693C131.427 21.8817 131.135 22.2031 130.872 22.9334C130.609 23.6638 130.493 24.4526 130.493 25.329C130.522 26.965 130.96 27.6953 131.895 27.5785Z" fill="#484848"/>
<path d="M155.179 29.8859C155.179 30.5871 155.033 31.1421 154.741 31.5219C154.507 31.8433 154.186 32.0186 153.806 32.1354C153.601 32.1938 153.309 32.2523 152.929 32.3399C152.637 32.3983 152.433 32.4276 152.345 32.4276C151.732 32.4276 151.206 32.1646 150.768 31.6388C150.329 31.1129 150.125 30.4702 150.125 29.7106C150.125 29.4185 150.212 28.7173 150.359 27.6656C150.475 26.8184 150.505 26.1757 150.388 25.6791C150.329 25.8836 150.096 26.4971 149.716 27.5196C149.219 28.805 148.781 29.5938 148.401 29.8859C148.197 30.0612 147.934 30.1196 147.612 30.1196C147.379 30.1196 147.145 30.032 146.911 29.8859C146.122 29.1263 145.538 27.6656 145.1 25.5038C145.042 25.8543 144.983 26.1757 144.983 26.5263C144.983 26.7308 145.042 27.3735 145.158 28.4544C145.246 29.214 145.246 29.8275 145.158 30.2949C145.042 30.8792 144.72 31.4051 144.224 31.8725C143.727 32.1354 143.23 32.2815 142.792 32.2815C142.149 32.2815 141.565 32.0186 141.039 31.4927C140.455 30.5578 140.104 29.9151 140.017 29.623C139.812 29.0095 139.695 28.1038 139.695 26.9061C139.695 25.7959 139.783 23.8093 139.987 20.9756C140.046 19.9823 140.367 19.1643 140.952 18.4631C141.507 17.762 142.295 17.2946 143.259 17.0316C145.158 16.9732 146.619 18.5216 147.612 21.6475C147.671 21.0632 147.905 20.3036 148.284 19.3396C148.839 17.9373 149.453 17.0901 150.125 16.7687C150.797 16.5934 151.381 16.4766 151.848 16.4766C152.637 16.4766 153.251 16.7103 153.66 17.1485C154.215 17.6159 154.595 18.2294 154.799 18.9598C154.945 19.4564 155.033 20.2452 155.091 21.3261C155.091 22.3194 155.12 23.3127 155.12 24.306C155.15 26.5847 155.179 28.396 155.179 29.8859Z" fill="#484848"/>
<path d="M166.69 22.785C166.748 22.9895 166.777 23.194 166.748 23.3985C166.748 24.0996 166.427 24.7131 165.813 25.1805C165.258 25.648 164.645 25.8233 164.002 25.7648C163.885 25.7356 163.68 25.7064 163.359 25.7356C163.388 25.9109 163.33 26.3199 163.213 27.021C163.213 27.3424 163.359 27.5761 163.68 27.7514C164.265 27.6053 164.761 27.6053 165.112 27.7514C165.696 27.9559 166.018 28.3357 166.076 28.8323C166.134 29.4166 165.959 30.0009 165.55 30.5852C165.112 31.1695 164.528 31.6953 163.768 32.0751C163.096 32.4257 162.307 32.6302 161.373 32.6302C160.555 32.6302 159.853 32.4841 159.181 32.2212C158.919 32.1043 158.51 31.7245 157.954 31.0818C157.37 30.1762 157.049 28.248 157.049 25.2974C157.049 23.603 157.195 21.6748 157.516 19.4838C157.692 18.2275 158.101 17.4095 158.685 17.0298L162.278 16.6792C162.892 16.5623 163.476 16.5039 164.06 16.5039C165.17 16.5039 165.842 16.7668 166.047 17.2927C166.134 17.4972 166.164 17.7601 166.164 18.023C166.164 18.6073 165.93 19.0748 165.463 19.4253C164.995 19.7759 164.352 19.9804 163.534 19.9804C163.33 19.9804 163.184 19.9804 163.067 19.9804C162.979 20.1849 162.921 20.5063 162.892 20.9445C162.862 21.4995 162.833 21.8209 162.833 21.9085C162.862 22.0838 163.038 22.2007 163.301 22.2591C163.71 21.9378 164.236 21.7917 164.878 21.7917C165.579 21.8209 166.193 22.1423 166.69 22.785Z" fill="#484848"/>
<path d="M45.5089 25.1836L45.2168 26.4398C47.4955 26.9949 48.5472 28.923 48.5472 32.5164H49.8327C49.8327 28.3095 48.3719 25.8555 45.5089 25.1836Z" fill="#484848"/>
<path d="M14.4258 18.5821C14.4258 18.9619 14.7179 19.254 15.0977 19.254C15.4775 19.254 15.7696 18.9619 15.7696 18.5821C15.7696 18.2023 15.4775 17.9102 15.0977 17.9102C14.7179 17.9102 14.4258 18.2023 14.4258 18.5821Z" fill="#484848"/>
<path d="M17.4922 17.8789C17.1125 17.8789 16.8203 18.171 16.8203 18.5508C16.8203 18.9306 17.1125 19.2228 17.4922 19.2228C17.872 19.2228 18.1642 18.9306 18.1642 18.5508C18.1642 18.2003 17.872 17.8789 17.4922 17.8789Z" fill="#484848"/>
<path d="M51.2354 18.8438C50.6803 18.8438 50.2129 19.3112 50.2129 19.8662C50.2129 20.4213 50.6803 20.8887 51.2354 20.8887C51.7905 20.8887 52.2579 20.4213 52.2579 19.8662C52.2579 19.282 51.7905 18.8438 51.2354 18.8438Z" fill="#484848"/>
<path d="M60.0581 20.3918C59.1233 19.9244 58.1592 19.6907 57.2828 19.6907C55.2962 16.4771 52.141 14.8411 48.0218 14.9287H46.9117C46.0937 14.9287 45.5386 14.7535 44.8375 13.7602C44.779 13.6433 44.5745 13.2051 44.3993 12.913C44.2824 12.6792 44.1948 12.504 44.1948 12.504C43.1138 10.5758 41.7992 8.79375 40.3677 7.39146C39.871 6.89482 39.1407 6.66111 38.4395 6.77796C37.7384 6.89482 37.1541 7.33304 36.8328 7.97575C36.7159 8.23868 36.453 8.41396 36.1608 8.41396H31.545C31.2528 8.41396 30.9899 8.23868 30.8731 7.97575C30.5517 7.33304 29.9674 6.89482 29.2663 6.77796C28.5651 6.66111 27.864 6.86561 27.3381 7.39146C25.4392 9.11511 23.9493 11.1893 22.7807 13.468C21.729 13.0006 20.5604 12.7669 19.275 12.7669C16.0614 12.7669 13.6074 14.1107 12.1175 16.6232C11.9714 16.8861 11.6793 17.0614 11.3871 17.0614L10.8613 17.0906C8.99156 17.1782 7.0342 17.2367 5.45663 17.4704C4.72628 17.5872 4.05435 17.9962 3.61613 18.6097C3.14871 19.2525 2.97342 20.0705 3.14871 20.8592C4.02513 25.3875 6.39149 28.3673 10.0433 29.6235C9.60506 30.2078 9.10842 31.1135 8.84549 32.3405L10.1017 32.6034C10.3938 31.2303 11.0658 30.3831 11.4163 30.0033C12.4681 30.237 13.6074 30.3539 14.8636 30.3247L14.8344 29.0392C12.8186 29.0685 11.095 28.7471 9.66349 28.0752C10.1893 28.046 10.7736 27.9875 11.3579 27.8707C14.1625 27.3156 16.0906 25.8549 16.9378 23.6638L15.7401 23.1964C14.0456 27.5493 7.6477 26.7897 7.58928 26.7897C6.27463 25.6504 5.33978 24.0436 4.72628 22.0278C5.01842 22.2031 5.33978 22.2907 5.69035 22.2907H6.44992C7.56006 22.2907 8.43649 21.3851 8.43649 20.3042C8.43649 19.5738 8.02749 18.9019 7.41399 18.5513C8.52413 18.4637 9.6927 18.4345 10.8613 18.376L11.3871 18.3468C12.1467 18.3176 12.8186 17.9086 13.1984 17.2659C14.4254 15.1625 16.4996 14.0523 19.2458 14.0523C20.3267 14.0523 21.32 14.2568 22.1964 14.6366C21.8751 15.367 21.5829 16.1265 21.32 16.9153L22.547 17.3243C22.7807 16.6232 23.0436 15.9512 23.3066 15.3085C24.2122 15.9512 24.9426 16.8569 25.41 17.9378C25.9651 19.194 26.1403 19.5738 26.6662 24.92C26.7246 25.3875 26.9291 25.8257 27.3089 26.1178C28.0101 26.7021 28.1269 27.4617 28.1561 28.1628C28.1853 29.0392 27.9224 29.7988 27.3673 30.3831C26.7538 30.9966 25.819 31.3472 24.7673 31.2887C22.7223 31.2303 21.4953 30.0325 21.32 27.9291L21.2908 27.6662C21.2031 25.0953 21.3784 22.9627 21.8751 20.5671L20.6188 20.3042C20.093 22.7874 19.9177 25.0953 20.0053 27.7538L20.0346 28.046C20.2683 30.8213 22.0211 32.5157 24.7088 32.6034C24.7673 32.6034 24.8257 32.6034 24.8841 32.6034C26.228 32.6034 27.4258 32.136 28.2438 31.318C29.0618 30.5 29.4708 29.3898 29.4123 28.1628C29.3831 27.2572 29.2078 26.0886 28.0977 25.183C28.0101 25.0953 27.9224 24.9785 27.9224 24.8324C27.3966 19.5154 27.2213 18.9019 26.5493 17.4412C25.9358 16.0389 24.9718 14.9287 23.8032 14.14C24.9133 11.9489 26.3156 9.99153 28.0685 8.26789C28.273 8.06339 28.5943 7.97575 28.8865 8.00496C29.1786 8.06339 29.4123 8.23868 29.5584 8.50161C29.909 9.20275 30.6101 9.64096 31.3989 9.64096H34.7585C35.4889 11.7736 37.5047 13.2927 39.871 13.2927C40.8935 13.2927 41.8284 13.0006 42.6464 12.5332C42.7633 12.7085 42.8509 12.8837 42.9678 13.0882L43.1723 13.468C43.6397 14.4029 43.6397 14.4029 43.6689 14.4613C44.5453 15.7175 45.451 16.2142 46.824 16.2142H47.9342C51.4107 16.1557 54.04 17.3827 55.7928 19.866C54.9164 20.1289 54.2153 20.6255 53.8647 21.3267C53.4265 22.1447 53.5725 23.1672 54.1276 24.1605C54.2737 24.4234 54.6243 24.5402 54.9164 24.4234C55.7928 24.0436 56.7861 23.7515 57.8378 23.5762C59.1817 23.3425 60.4379 22.9919 61.5773 23.1672C62.1615 23.2548 62.5413 22.5537 62.1615 22.1155C61.6941 21.4435 60.9345 20.8592 60.0581 20.3918Z" fill="#484848"/>
<path d="M46.0927 20.5073V19.8645L46.2388 19.251C45.5961 19.105 45.0702 18.7544 44.7781 18.2578C44.632 18.024 44.4567 17.615 44.5736 17.1476L43.3174 16.8555C43.1421 17.5566 43.2589 18.287 43.6679 18.9297C43.814 19.1634 44.0185 19.3971 44.223 19.6016C42.4117 20.3904 41.1263 22.2601 41.1263 24.4512C41.1263 25.0063 41.2139 25.5613 41.3892 26.1164C41.4477 26.2625 41.3892 26.4378 41.3016 26.4962C40.1622 27.1973 38.2925 28.8917 38.3509 32.5143L39.6364 32.4851C39.5779 29.5052 41.0679 28.1322 41.9735 27.6063C42.587 27.2265 42.8499 26.467 42.6454 25.7366C42.5286 25.3276 42.4409 24.8894 42.4409 24.4804C42.4117 22.2601 44.0769 20.5073 46.0927 20.5073Z" fill="#484848"/>
<path d="M8.84581 13.4975C8.87502 13.6435 8.87502 13.7896 8.93345 13.9357C9.02109 14.2278 9.10874 14.5492 9.31324 14.8413C9.51774 14.5492 9.60538 14.2278 9.69302 13.9357C9.72224 13.7896 9.75145 13.6435 9.78067 13.4975C9.92674 13.4682 10.0728 13.4682 10.2189 13.4098C10.511 13.3222 10.8324 13.2345 11.1245 13.03C10.8324 12.8255 10.511 12.7379 10.2189 12.6502C10.0728 12.621 9.92674 12.5918 9.78067 12.5626C9.75145 12.4165 9.75145 12.2705 9.69302 12.1244C9.60538 11.8322 9.51774 11.5109 9.31324 11.2188C9.10874 11.5109 9.02109 11.8322 8.93345 12.1244C8.90424 12.2705 8.87502 12.4165 8.84581 12.5626C8.69974 12.5918 8.55367 12.5918 8.4076 12.6502C8.11545 12.7379 7.7941 12.8255 7.50195 13.03C7.7941 13.2345 8.11545 13.3222 8.4076 13.4098C8.55367 13.439 8.69974 13.4682 8.84581 13.4975Z" fill="#484848"/>
<path d="M53.6304 11.2488C53.3382 11.0443 53.0169 10.9566 52.7247 10.869C52.5787 10.8398 52.4326 10.8106 52.2865 10.7814C52.2573 10.6353 52.2573 10.4892 52.1989 10.3431C52.1112 10.051 52.0236 9.72964 51.8191 9.4375C51.6146 9.72964 51.527 10.051 51.4393 10.3431C51.4101 10.4892 51.3809 10.6353 51.3517 10.7814C51.2056 10.8106 51.0595 10.8106 50.9135 10.869C50.6213 10.9566 50.3 11.0443 50.0078 11.2488C50.3 11.4533 50.6213 11.5409 50.9135 11.6286C51.0595 11.6578 51.2056 11.687 51.3517 11.7162C51.3809 11.8623 51.3809 12.0084 51.4393 12.1544C51.527 12.4466 51.6146 12.7679 51.8191 13.0601C52.0236 12.7679 52.1112 12.4466 52.1989 12.1544C52.2281 12.0084 52.2573 11.8623 52.2865 11.7162C52.4326 11.687 52.5787 11.687 52.7247 11.6286C53.0461 11.5409 53.3382 11.4533 53.6304 11.2488Z" fill="#484848"/>
<path d="M57.9551 24.6858C60.0001 28.7174 60.0293 32.1355 60.0293 32.1647H60.672H61.3147C61.3147 32.0186 61.2855 28.4253 59.1236 24.1016L57.9551 24.6858Z" fill="#484848"/>
<path d="M31.4278 11.9766C31.4278 11.5968 31.1357 11.3047 30.7559 11.3047C30.3761 11.3047 30.084 11.5968 30.084 11.9766C30.084 12.3564 30.3761 12.6485 30.7559 12.6485C31.1357 12.6485 31.4278 12.3564 31.4278 11.9766Z" fill="#484848"/>
<path d="M33.1231 11.3047C32.7433 11.3047 32.4512 11.5968 32.4512 11.9766C32.4512 12.3564 32.7433 12.6485 33.1231 12.6485C33.5029 12.6485 33.795 12.3564 33.795 11.9766C33.795 11.5968 33.5029 11.3047 33.1231 11.3047Z" fill="#484848"/>
<path d="M32.5098 14.6076C32.7727 14.4908 33.0064 14.257 33.0064 14.0233C33.0064 13.6143 32.685 13.293 32.276 13.293H31.7502C31.3412 13.293 31.0198 13.6143 31.0198 14.0233C31.0198 14.257 31.2535 14.4908 31.5165 14.6076C31.458 15.1335 30.9906 15.5425 30.4355 15.5425V16.5065C31.049 16.5065 31.6333 16.2144 32.0131 15.7762C32.3929 16.2144 32.948 16.5065 33.5907 16.5065V15.5425C33.0356 15.5425 32.5682 15.1335 32.5098 14.6076Z" fill="#484848"/>
<path d="M29.7333 14.1412L27.922 12.9727L27.4838 13.6446L28.6232 14.4042L27.2793 14.9008L27.5714 15.6604L29.6457 14.8716C29.7917 14.8132 29.8794 14.6963 29.9086 14.5502C29.9086 14.3749 29.8502 14.2289 29.7333 14.1412Z" fill="#484848"/>
<path d="M36.5105 13.6133L36.0723 12.9414L34.261 14.11C34.1442 14.1976 34.0565 14.3437 34.0857 14.4898C34.115 14.6358 34.2026 14.7819 34.3487 14.8111L36.4229 15.5999L36.715 14.8403L35.3712 14.3437L36.5105 13.6133Z" fill="#484848"/>
<path d="M72.5033 9.46324H70.5167C70.3706 9.46324 70.283 9.43402 70.1953 9.34638C70.1077 9.25874 70.0785 9.1711 70.0785 9.02503C70.0785 8.93738 70.1077 8.84974 70.1953 8.79131C70.283 8.73288 70.3706 8.70367 70.4875 8.70367C70.5459 8.70367 70.6043 8.70367 70.6335 8.7621C70.6628 8.82052 70.692 8.82053 70.692 8.87895V8.90817C70.692 8.99581 70.7504 9.02503 70.838 9.02503H71.101V8.64524H70.1077C69.9616 8.64524 69.874 8.5576 69.874 8.41153C69.874 8.26545 69.9616 8.17781 70.1077 8.17781H70.1369C70.0785 8.11938 70.02 8.09017 69.9324 8.06095C69.8448 8.00253 69.8448 7.9441 69.9324 7.85645C70.1369 7.65195 70.3122 7.41824 70.3998 7.21374H67.7705C67.6829 7.21374 67.6245 7.27217 67.6245 7.35981V7.38903C67.6245 7.44745 67.6537 7.50588 67.7413 7.50588H69.4942C69.6695 7.50588 69.7571 7.59353 69.7571 7.76881C69.7571 7.9441 69.6695 8.03174 69.4942 8.03174H68.9099V8.26545H69.465C69.611 8.26545 69.6987 8.3531 69.6987 8.49917C69.6987 8.64524 69.611 8.73288 69.465 8.73288H68.9099V8.93738L69.4942 8.90817C69.6987 8.90817 69.7863 8.99581 69.7863 9.20031C69.7863 9.3756 69.6987 9.46324 69.4942 9.49245C68.1795 9.5801 67.42 9.60931 67.2447 9.63852C67.157 9.63852 67.0986 9.63853 67.0402 9.5801C67.011 9.55088 66.9818 9.46324 66.9525 9.3756C66.9525 9.25874 66.9525 9.20031 66.9818 9.14188C67.011 9.08345 67.0986 9.05424 67.1863 9.05424C67.4492 9.05424 67.7705 9.02503 68.1503 8.99581V8.73288H67.566C67.42 8.73288 67.3615 8.64524 67.3615 8.49917C67.3615 8.3531 67.42 8.26545 67.566 8.26545H68.1503V8.03174H67.5076C67.3323 8.03174 67.2155 7.9441 67.2155 7.7396V7.71038H66.9525C66.8065 7.71038 66.748 7.65195 66.748 7.50588V7.03845C66.748 6.89238 66.8065 6.77553 66.8941 6.68788C66.9818 6.60024 67.0986 6.54181 67.2447 6.54181H69.5234C69.5234 6.27888 69.6695 6.13281 69.9616 6.13281C70.2538 6.13281 70.3998 6.27888 70.3998 6.54181H72.6785C72.8246 6.54181 72.9415 6.60024 73.0291 6.68788C73.1168 6.77553 73.1752 6.89238 73.1752 7.03845V7.21374C73.1752 7.35981 73.1168 7.47667 73.0291 7.56431C72.9415 7.65195 72.8246 7.71038 72.6785 7.71038H72.5617V7.88567C72.5617 7.97331 72.5325 8.00253 72.4448 8.00253H71.7437V8.20703H72.7954C72.9415 8.20703 73.0291 8.29467 73.0291 8.44074C73.0291 8.58681 72.9415 8.67445 72.7954 8.67445H71.7437V9.02503H71.9774C72.0943 9.02503 72.1527 8.9666 72.1527 8.84974V8.7621C72.1527 8.73288 72.1527 8.73288 72.1819 8.73288H72.4156C72.6785 8.73288 72.7954 8.84974 72.7954 9.11267C72.883 9.34638 72.7662 9.46324 72.5033 9.46324ZM68.1503 9.66774H72.065C72.2111 9.66774 72.328 9.72617 72.4156 9.81381C72.5033 9.90145 72.5617 10.0183 72.5617 10.1644V11.6835C72.5617 11.8296 72.5033 11.9465 72.4156 12.0341C72.328 12.1217 72.2111 12.1802 72.065 12.1802H71.7145C71.8313 12.2094 72.1819 12.3262 72.7662 12.5015C72.9707 12.56 73.0583 12.6476 73.0583 12.7352C73.0583 12.8229 72.9707 12.9105 72.7662 13.0566C72.5909 13.1735 72.4448 13.1735 72.328 13.1442C71.9482 12.9982 71.4223 12.8229 70.7796 12.6184C70.4875 12.5307 70.4583 12.4139 70.6628 12.2386V12.2094H69.2897L69.4942 12.3555C69.5526 12.3847 69.5818 12.4139 69.5818 12.4723C69.5818 12.5015 69.5526 12.5307 69.5234 12.56C68.9391 12.8229 68.2672 13.0274 67.4784 13.1442C67.3031 13.1735 67.157 13.115 67.0402 12.9982C66.8065 12.7352 66.8649 12.56 67.2447 12.5015C67.6245 12.4139 68.0335 12.3262 68.4717 12.1802H68.0627C67.9458 12.1802 67.8582 12.151 67.7705 12.0633C67.7121 12.0049 67.6537 11.888 67.6537 11.7712V10.1644C67.6537 10.0183 67.7121 9.90145 67.7998 9.81381C67.8874 9.72617 68.0043 9.66774 68.1503 9.66774ZM71.5684 10.1352H68.7054C68.5885 10.1352 68.5301 10.1936 68.5301 10.3105V10.3689H71.6853V10.2228C71.656 10.1644 71.6268 10.1352 71.5684 10.1352ZM71.656 10.8071H68.5009V11.0408H71.656V10.8071ZM71.656 11.479H68.5009V11.6251C68.5009 11.6835 68.5301 11.7127 68.5885 11.7127H71.4515C71.5684 11.7127 71.6268 11.6543 71.6268 11.5375V11.479H71.656ZM70.6335 8.00253C70.6043 8.06095 70.5167 8.11938 70.429 8.20703H71.101V8.00253H70.6335ZM72.2695 7.24295H70.5459L70.8088 7.30138C70.9549 7.3306 70.9841 7.41824 70.9257 7.5351V7.56431H72.4156V7.38903C72.4156 7.30138 72.3572 7.24295 72.2695 7.24295Z" fill="#484848"/>
<path d="M76.4184 10.0496H77.2656V9.66978C77.2656 9.40685 77.4117 9.26077 77.7039 9.26077C77.9668 9.26077 78.1129 9.40685 78.1129 9.66978V10.0496H78.6679C78.9309 10.0496 79.0477 10.1664 79.0477 10.4293C79.0477 10.6923 78.9309 10.8383 78.6679 10.8383H78.1129V10.9552C78.2297 11.0136 78.4634 11.1597 78.814 11.4226C78.9309 11.5103 78.9601 11.5979 78.9601 11.6563C78.9601 11.7148 78.9016 11.8024 78.814 11.9193C78.6387 12.153 78.4342 12.1822 78.2297 11.9485L78.0836 11.8024V12.7665C78.0836 13.0294 77.9376 13.1755 77.6746 13.1755C77.3825 13.1755 77.2364 13.0294 77.2364 12.7665V11.6563C77.0319 11.9777 76.8274 12.2698 76.5937 12.5036C76.5061 12.5912 76.4184 12.6204 76.3308 12.6496C76.2724 12.6788 76.1847 12.6496 76.1263 12.6204C76.0679 12.562 76.0094 12.5036 75.951 12.3867C75.8341 12.1238 75.8926 11.9193 76.1263 11.744C76.4184 11.5103 76.6522 11.1889 76.8859 10.8383H76.36C76.0971 10.8383 75.951 10.6923 75.951 10.4293C76.0094 10.1664 76.1263 10.0496 76.4184 10.0496ZM79.7781 6.89442H81.9984C82.2613 6.89442 82.4074 7.01128 82.4074 7.2742C82.4074 7.53713 82.2613 7.6832 81.9984 7.6832H80.5961C81.0051 8.03378 81.5017 8.2967 82.1152 8.53042C82.3197 8.58885 82.4366 8.67649 82.495 8.79335C82.5534 8.9102 82.495 9.02706 82.3781 9.20235C82.2321 9.40685 82.0276 9.43606 81.7646 9.34842C81.0051 8.99785 80.3331 8.53042 79.7781 7.91692V9.08549C79.7781 9.37763 79.632 9.5237 79.3399 9.5237C79.0477 9.5237 78.9016 9.37763 78.9016 9.08549V7.94613C78.3758 8.55963 77.7331 9.02706 77.0027 9.34842C76.7398 9.46527 76.5645 9.40685 76.4184 9.23156C76.1847 8.93942 76.2724 8.73492 76.6521 8.61806C77.2072 8.38435 77.7039 8.06299 78.1129 7.71242H76.8274C76.5645 7.71242 76.4477 7.56635 76.4477 7.30342C76.4477 7.04049 76.5645 6.92363 76.8274 6.92363H78.9309V6.60228C78.9309 6.31013 79.0769 6.16406 79.3691 6.16406C79.6612 6.16406 79.8073 6.31013 79.8073 6.60228V6.89442H79.7781ZM81.2972 10.0496H82.3781C82.6411 10.0496 82.7579 10.1664 82.7579 10.4293C82.7579 10.6923 82.6411 10.8383 82.3781 10.8383H81.7062C81.9399 11.2181 82.2321 11.5395 82.5534 11.8024C82.6995 11.9193 82.7871 12.0361 82.8164 12.1238C82.8456 12.2114 82.7871 12.3575 82.6703 12.5036C82.5534 12.6496 82.4658 12.7081 82.3489 12.7081C82.2613 12.7081 82.1444 12.6496 82.0276 12.5036C81.7939 12.2114 81.5601 11.8608 81.3264 11.4518V12.7373C81.3264 13.0002 81.1804 13.1463 80.9174 13.1463C80.6545 13.1463 80.5084 13.0002 80.5084 12.7373V11.4518C80.2455 11.9193 79.9241 12.2991 79.6028 12.5912C79.3983 12.7665 79.1938 12.7373 79.0477 12.5328C78.9309 12.3867 78.9016 12.2991 78.9016 12.1822C78.9309 12.0946 79.0185 11.9777 79.1646 11.8901C79.5444 11.5979 79.8365 11.2181 80.0702 10.7799H79.7196C79.4567 10.7799 79.3399 10.6338 79.3399 10.3709C79.3399 10.108 79.4567 9.99113 79.7196 9.99113H80.5084V9.58213C80.5084 9.3192 80.6545 9.17313 80.9174 9.17313C81.1804 9.17313 81.3264 9.3192 81.3264 9.58213V10.0496H81.2972Z" fill="#484848"/>
<path d="M88.571 9.72804H85.6788C85.4743 9.72804 85.3574 9.61118 85.3574 9.40668C85.3574 9.20218 85.4743 9.08532 85.6788 9.08532H86.0878C86.0586 8.96847 86.0294 8.8224 85.9417 8.64711C85.9125 8.58868 85.9417 8.58868 86.0001 8.55947H85.7956C85.5911 8.55947 85.5035 8.47182 85.5035 8.26733C85.5035 8.06283 85.5911 7.97518 85.7956 7.97518H86.7597V7.94597C86.7597 7.68304 86.8766 7.56618 87.1395 7.56618C87.4024 7.56618 87.5193 7.68304 87.5193 7.94597V7.97518H88.4541C88.6586 7.97518 88.7463 8.06283 88.7463 8.26733C88.7463 8.47182 88.6586 8.55947 88.4541 8.55947H88.2496C88.3081 8.55947 88.3373 8.58868 88.3373 8.58868C88.3373 8.58868 88.3373 8.58868 88.3373 8.6179C88.2788 8.8224 88.1912 8.96847 88.1328 9.08532H88.5126C88.7171 9.08532 88.8339 9.20218 88.8339 9.40668C88.8339 9.61118 88.7755 9.72804 88.571 9.72804ZM90.9373 7.33247H86.4676C86.3507 7.33247 86.2923 7.3909 86.2923 7.50775C86.2923 7.5954 86.2631 7.65383 86.2046 7.71225C86.1462 7.77068 86.0586 7.7999 85.9709 7.7999C85.8248 7.7999 85.708 7.77068 85.6496 7.68304C85.5619 7.62461 85.5327 7.50775 85.5327 7.3909V6.9819C85.5327 6.86504 85.5619 6.7774 85.6496 6.71897C85.708 6.66054 85.7956 6.60211 85.9125 6.60211H88.3373V6.54368C88.3373 6.25154 88.4833 6.10547 88.7755 6.10547C89.0676 6.10547 89.2137 6.25154 89.2137 6.54368V6.60211H91.5508C91.6969 6.60211 91.8138 6.66054 91.9014 6.74818C91.9891 6.83583 92.0475 6.95268 92.0475 7.09875V7.3909C92.0475 7.53697 91.9891 7.62461 91.9014 7.68304C91.8138 7.74147 91.6969 7.7999 91.5508 7.7999C91.4632 7.7999 91.3756 7.77068 91.3171 7.71225C91.2587 7.65383 91.2295 7.5954 91.2295 7.50775C91.1126 7.3909 91.0542 7.33247 90.9373 7.33247ZM86.2631 9.99097H88.0743C88.2204 9.99097 88.3373 10.0494 88.4249 10.137C88.5126 10.2247 88.571 10.3415 88.571 10.4876V12.4742C88.571 12.6495 88.5418 12.7663 88.5126 12.854C88.4833 12.9416 88.3957 13 88.2788 13.0585C88.1328 13.1169 87.9283 13.1461 87.6653 13.1461C87.4316 13.1461 87.2856 13.0585 87.2271 12.9124C87.1687 12.7663 87.1979 12.6787 87.2563 12.6203C87.3148 12.5618 87.4316 12.5326 87.5777 12.5326H87.6361C87.7238 12.5326 87.753 12.5034 87.753 12.4158V12.0652H86.526V12.7371C86.526 13 86.4091 13.1169 86.1462 13.1169C85.8833 13.1169 85.7664 13 85.7664 12.7371V10.4876C85.7664 10.3415 85.8248 10.2247 85.9125 10.137C86.0001 10.0494 86.117 9.99097 86.2631 9.99097ZM86.5552 10.8382H87.7822V10.6629C87.7822 10.6045 87.753 10.546 87.6653 10.546H86.7305C86.6136 10.546 86.5552 10.6045 86.5552 10.7213V10.8382ZM87.7822 11.3348H86.5552V11.627H87.7822V11.3348ZM87.4316 9.08532C87.5193 8.85161 87.5777 8.67632 87.6069 8.55947H86.6721C86.7597 8.79318 86.8181 8.96847 86.8473 9.08532H87.4316ZM91.6093 8.53025H89.8564V8.67632C89.8564 8.73475 89.8856 8.76397 89.9441 8.76397H91.3463C91.4924 8.76397 91.6093 8.8224 91.6969 8.91004C91.7846 8.99768 91.843 9.11454 91.843 9.26061V9.64039C91.843 9.78647 91.7846 9.90332 91.6969 9.99097C91.6093 10.0786 91.4924 10.137 91.3463 10.137H90.0317C89.9148 10.137 89.8564 10.1955 89.8564 10.3123V10.3708H91.434C91.5801 10.3708 91.6677 10.4584 91.6677 10.6045C91.6677 10.7505 91.5801 10.8382 91.434 10.8382H89.8564V11.0719H91.3756C91.5216 11.0719 91.6093 11.1595 91.6093 11.3056C91.6093 11.4517 91.5216 11.5393 91.3756 11.5393H89.8564V11.773H91.434C91.5508 11.773 91.6385 11.8023 91.6969 11.8607C91.7553 11.9191 91.7846 12.0068 91.7846 12.1236V12.1528C91.9306 12.2113 91.9891 12.2405 92.0475 12.2405C92.1643 12.2697 92.2228 12.3865 92.1936 12.591C92.1351 12.8248 92.0475 12.9708 91.9014 13.0585C91.7553 13.1461 91.5801 13.2045 91.2879 13.2045H90.0901C89.6811 13.2045 89.389 13.1461 89.2429 13C89.0968 12.8832 89.0092 12.6203 89.0092 12.2405V10.137C89.0092 9.99097 89.0676 9.87411 89.1553 9.78647C89.2429 9.69882 89.3598 9.64039 89.5058 9.64039H90.8205C90.9081 9.64039 90.9666 9.58197 90.9666 9.49432V9.46511C90.9666 9.37747 90.9373 9.34825 90.8497 9.34825H89.5058C89.3598 9.34825 89.2429 9.28982 89.1553 9.20218C89.0676 9.11454 89.0092 8.99768 89.0092 8.85161V8.0044C89.0092 7.74147 89.1553 7.5954 89.4182 7.5954C89.6811 7.5954 89.8272 7.74147 89.8272 8.0044V8.03361H91.5801C91.7553 8.03361 91.8722 8.12125 91.8722 8.29654C91.8722 8.44261 91.7846 8.53025 91.6093 8.53025ZM91.5216 12.1528H89.8564C89.8564 12.2697 89.8856 12.3573 89.9148 12.3865C89.9441 12.4158 90.0609 12.445 90.2362 12.445H91.2295C91.3171 12.445 91.4048 12.4158 91.434 12.3865C91.4632 12.3573 91.4924 12.2697 91.5216 12.1528Z" fill="#484848"/>
<path d="M96.6926 10.4868V12.7655C96.6926 13.0284 96.5465 13.1745 96.2836 13.1745C96.0207 13.1745 95.8746 13.0284 95.8746 12.7655V10.7497C95.787 10.7789 95.6701 10.8081 95.4948 10.8665C95.3487 10.925 95.2319 10.9542 95.1442 10.9834C94.8521 11.071 94.706 10.9542 94.6184 10.662C94.5892 10.516 94.5892 10.3991 94.6184 10.3115C94.6476 10.2238 94.7352 10.1654 94.8813 10.1362C95.2903 10.0193 95.6117 9.9609 95.8162 9.87326V8.44176H95.3195C95.2611 8.67547 95.2319 8.85076 95.1735 8.99683C95.115 9.1429 95.0566 9.23054 94.969 9.25976C94.8813 9.28897 94.7937 9.25976 94.6476 9.17211C94.56 9.11369 94.5015 9.05526 94.4723 8.99683C94.4431 8.9384 94.4431 8.85076 94.5015 8.7339C94.6476 8.23726 94.7352 7.65297 94.7937 6.98104C94.8229 6.6889 94.969 6.57204 95.2027 6.63047C95.4364 6.65969 95.5532 6.80576 95.524 7.03947C95.4948 7.24397 95.4656 7.41926 95.4364 7.59454H95.787V6.57204C95.787 6.30912 95.933 6.16304 96.196 6.16304C96.4589 6.16304 96.605 6.30912 96.605 6.57204V7.56533H96.8095C97.1016 7.56533 97.2477 7.7114 97.2477 8.00354C97.2477 8.29569 97.1016 8.44176 96.8095 8.44176H96.6926V9.66876L96.9555 9.58111C97.2185 9.49347 97.3937 9.61033 97.423 9.90247C97.4522 10.1362 97.3645 10.3115 97.1308 10.3699C97.0724 10.3991 97.014 10.3991 96.8971 10.4575C96.8095 10.4575 96.751 10.4868 96.6926 10.4868ZM98.7084 7.3024H101.016C101.192 7.3024 101.308 7.36083 101.367 7.5069C101.455 7.65297 101.484 7.9159 101.455 8.26647C101.396 9.7564 101.308 10.8081 101.25 11.4508C101.162 12.0935 101.075 12.5025 100.929 12.6486C100.812 12.8239 100.695 12.9408 100.549 12.9992C100.403 13.0576 100.228 13.0868 99.9646 13.0868C99.6725 13.0868 99.468 12.97 99.4095 12.7363C99.3511 12.5318 99.3803 12.4149 99.468 12.3273C99.5556 12.2396 99.7017 12.2104 99.9062 12.2396H99.9354C100.052 12.2396 100.14 12.1812 100.228 12.0935C100.432 11.8598 100.578 10.516 100.666 8.1204H100.637C100.461 9.05526 100.198 9.93169 99.8477 10.7497C99.4972 11.5677 99.0882 12.2104 98.5915 12.7363C98.4747 12.8239 98.387 12.8823 98.2994 12.8823C98.2117 12.8823 98.1241 12.8531 98.0072 12.7655C97.8612 12.6486 97.7735 12.561 97.7735 12.4441C97.7735 12.3565 97.832 12.2396 97.978 12.1228C98.4455 11.6845 98.8252 11.1003 99.1466 10.3991C99.468 9.69797 99.7309 8.9384 99.9062 8.1204H99.5556C99.4095 8.70469 99.205 9.25976 98.9421 9.78561C98.6792 10.3407 98.4162 10.7789 98.0949 11.1295C98.0072 11.2463 97.9196 11.2755 97.832 11.3048C97.7443 11.3048 97.6567 11.2755 97.5398 11.1879C97.3937 11.071 97.3353 10.9834 97.3353 10.8958C97.3353 10.8081 97.3937 10.6913 97.5106 10.5744C98.0657 9.99011 98.4747 9.1429 98.8252 8.09119H98.4455C98.2702 8.50019 98.0949 8.82154 97.9196 9.08447C97.832 9.20133 97.7443 9.28897 97.6567 9.28897C97.569 9.31819 97.4522 9.25976 97.3353 9.17211C97.2185 9.08447 97.1308 8.96761 97.1308 8.90919C97.1016 8.82154 97.16 8.70469 97.2477 8.58783C97.5982 8.06197 97.8904 7.36083 98.1241 6.51362C98.1825 6.22147 98.3578 6.10462 98.6207 6.16304C98.8837 6.22147 99.0005 6.36754 98.9421 6.63047C98.9129 6.71812 98.8837 6.80576 98.8545 6.95183C98.8252 7.0979 98.7084 7.24397 98.7084 7.3024Z" fill="#484848"/>
</svg>
