<svg width="24" height="24" viewBox="0 0 24 24" fill="none" xmlns="http://www.w3.org/2000/svg">
<mask id="mask0_1464_64133" style="mask-type:alpha" maskUnits="userSpaceOnUse" x="2" y="2" width="20" height="20">
<path fill-rule="evenodd" clip-rule="evenodd" d="M11.6 2C11.8847 2 12.1578 2.11238 12.3591 2.31242C12.5604 2.51246 12.6735 2.78377 12.6735 3.06667V3.26933C14.0229 3.80693 14.8205 5.328 14.8205 6.8C14.8205 8.6272 13.5903 10.5333 11.6 10.5333C9.6097 10.5333 8.37946 8.6272 8.37946 6.8C8.37946 5.328 9.17708 3.80693 10.5265 3.26933V3.06667C10.5265 2.78377 10.6396 2.51246 10.8409 2.31242C11.0422 2.11238 11.3153 2 11.6 2ZM18.6852 5.7792C18.2743 5.79972 17.8734 5.91163 17.5118 6.10667C16.8591 6.45333 16.3149 7.0432 15.9756 7.7664C15.6364 8.48853 15.5312 9.28213 15.6836 10.0011C15.8361 10.72 16.2687 11.4325 17.047 11.7931C17.8242 12.1536 18.6519 12.0256 19.3046 11.6789C19.9562 11.3323 20.5005 10.7424 20.8397 10.0203C21.179 9.29707 21.2842 8.50347 21.1317 7.78453C21.0485 7.38433 20.8773 7.00734 20.6304 6.68053C20.7422 6.42551 20.7493 6.13718 20.6502 5.87704C20.551 5.61689 20.3536 5.4055 20.0999 5.28794C19.8462 5.17038 19.5563 5.15595 19.292 5.24772C19.0277 5.33949 18.81 5.5302 18.6852 5.7792ZM2.5696 6.6848C2.3141 7.01547 2.15093 7.39947 2.06827 7.7888C1.91583 8.50773 2.02103 9.30133 2.36026 10.0235C2.6995 10.7456 3.24377 11.3355 3.89539 11.6832C4.54809 12.0299 5.37577 12.1579 6.15299 11.7973C6.93021 11.4368 7.36391 10.7243 7.51635 10.0053C7.66879 9.2864 7.56359 8.4928 7.22436 7.7696C6.88513 7.04747 6.34086 6.4576 5.68923 6.11093C5.32684 5.91708 4.92579 5.80525 4.51481 5.78347C4.39452 5.52702 4.17662 5.32856 3.90907 5.23174C3.64151 5.13492 3.3462 5.14768 3.08811 5.2672C2.83001 5.38672 2.63028 5.60323 2.53284 5.86908C2.4354 6.13493 2.44824 6.42835 2.56853 6.6848H2.5696ZM6.39453 13.3269C7.89549 12.206 9.72235 11.5999 11.6 11.6C13.6289 11.6 15.4647 12.3104 16.8055 13.3269C18.1076 14.3136 19.1146 15.7323 19.1146 17.2299C19.1146 18.7307 17.8436 19.7205 16.5929 20.2773C15.2564 20.8715 13.4894 21.2 11.6 21.2C9.71062 21.2 7.94361 20.8715 6.60709 20.2773C5.35644 19.7205 4.0854 18.7307 4.0854 17.2299C4.0854 15.7323 5.09236 14.3136 6.39453 13.3259V13.3269Z" fill="#111111"/>
</mask>
<g mask="url(#mask0_1464_64133)">
<rect width="24" height="24" fill="#111111"/>
</g>
</svg>
