<svg width="24" height="24" viewBox="0 0 24 24" fill="none" xmlns="http://www.w3.org/2000/svg">
<mask id="mask0_826_31448" style="mask-type:alpha" maskUnits="userSpaceOnUse" x="6" y="8" width="12" height="7">
<path d="M11.9998 10.7999L8.0998 14.6999C7.91647 14.8832 7.68314 14.9749 7.3998 14.9749C7.11647 14.9749 6.88314 14.8832 6.6998 14.6999C6.51647 14.5166 6.4248 14.2832 6.4248 13.9999C6.4248 13.7166 6.51647 13.4832 6.6998 13.2999L11.2998 8.6999C11.4998 8.4999 11.7331 8.3999 11.9998 8.3999C12.2665 8.3999 12.4998 8.4999 12.6998 8.6999L17.2998 13.2999C17.4831 13.4832 17.5748 13.7166 17.5748 13.9999C17.5748 14.2832 17.4831 14.5166 17.2998 14.6999C17.1165 14.8832 16.8831 14.9749 16.5998 14.9749C16.3165 14.9749 16.0831 14.8832 15.8998 14.6999L11.9998 10.7999Z" fill="#111111"/>
</mask>
<g mask="url(#mask0_826_31448)">
<rect width="24" height="24" fill="#111111"/>
</g>
</svg>
