<svg width="24" height="24" viewBox="0 0 24 24" fill="none" xmlns="http://www.w3.org/2000/svg">
<mask id="mask0_1464_64134" style="mask-type:alpha" maskUnits="userSpaceOnUse" x="2" y="2" width="20" height="20">
<path d="M8.11028 2.01603C9.23846 1.83485 10.4336 3.20969 10.7778 5.10674C11.122 6.99314 10.5005 8.67704 9.37232 8.86888C8.25369 9.06072 7.04902 7.68588 6.69527 5.78883C6.34152 3.90243 6.9821 2.21853 8.11028 2.01603ZM14.9463 2.01603C16.0841 2.21853 16.7151 3.90243 16.3804 5.78883C16.0171 7.68588 14.822 9.06072 13.6938 8.86888C12.5561 8.67704 11.9346 6.99314 12.2884 5.10674C12.6326 3.20969 13.8277 1.83485 14.9463 2.01603ZM2.99521 6.91854C4.08515 6.39631 5.56709 7.34484 6.34152 8.99677C7.06815 10.6807 6.81956 12.4498 5.73918 12.9721C4.6588 13.4943 3.18643 12.5564 2.43112 10.8832C1.67581 9.20992 1.94352 7.4301 2.99521 6.91854ZM20.2048 6.91854C21.2565 7.4301 21.5242 9.20992 20.7689 10.8832C20.0136 12.5564 18.5412 13.4943 17.4608 12.9721C16.3804 12.4498 16.1319 10.6807 16.8585 8.99677C17.6329 7.34484 19.1148 6.39631 20.2048 6.91854ZM18.6081 18.4074C18.6464 19.4093 17.958 20.5177 17.1357 20.9333C15.4244 21.8072 13.3974 19.9954 11.4948 19.9954C9.59222 19.9954 7.54619 21.8818 5.86348 20.9333C4.90739 20.4111 4.24769 19.0256 4.37198 17.8746C4.54407 16.2866 6.25547 15.434 7.26892 14.2723C8.61701 12.7696 9.5731 9.9453 11.4948 9.9453C13.407 9.9453 14.4205 12.7269 15.7112 14.2723C16.7724 15.5725 18.5412 16.6703 18.6081 18.4074Z" fill="#111111"/>
</mask>
<g mask="url(#mask0_1464_64134)">
<rect width="24" height="24" fill="#111111"/>
</g>
</svg>
