<svg width="24" height="24" viewBox="0 0 24 24" fill="none" xmlns="http://www.w3.org/2000/svg">
<mask id="mask0_826_31526" style="mask-type:alpha" maskUnits="userSpaceOnUse" x="4" y="10" width="16" height="4">
<path d="M5.14286 13.1429H13.1429H18.8571C19.181 13.1429 19.4524 13.0334 19.6714 12.8143C19.8905 12.5953 20 12.3238 20 12C20 11.6762 19.8905 11.4048 19.6714 11.1857C19.4524 10.9667 19.181 10.8572 18.8571 10.8572H13.1429H5.14286C4.81905 10.8572 4.54762 10.9667 4.32857 11.1857C4.10952 11.4048 4 11.6762 4 12C4 12.3238 4.10952 12.5953 4.32857 12.8143C4.54762 13.0334 4.81905 13.1429 5.14286 13.1429Z" fill="#111111"/>
</mask>
<g mask="url(#mask0_826_31526)">
<rect width="24" height="24" fill="#111111"/>
</g>
</svg>
