<svg width="24" height="24" viewBox="0 0 24 24" fill="none" xmlns="http://www.w3.org/2000/svg">
<mask id="mask0_826_31578" style="mask-type:alpha" maskUnits="userSpaceOnUse" x="2" y="3" width="20" height="17">
<path d="M19 18C19.2833 18 19.5208 17.9042 19.7125 17.7125C19.9042 17.5208 20 17.2833 20 17C20 16.7167 19.9042 16.4792 19.7125 16.2875C19.5208 16.0958 19.2833 16 19 16C18.7167 16 18.4792 16.0958 18.2875 16.2875C18.0958 16.4792 18 16.7167 18 17C18 17.2833 18.0958 17.5208 18.2875 17.7125C18.4792 17.9042 18.7167 18 19 18ZM19 20C18.1667 20 17.4583 19.7083 16.875 19.125C16.2917 18.5417 16 17.8333 16 17C16 16.1667 16.2917 15.4583 16.875 14.875C17.4583 14.2917 18.1667 14 19 14C19.8333 14 20.5417 14.2917 21.125 14.875C21.7083 15.4583 22 16.1667 22 17C22 17.8333 21.7083 18.5417 21.125 19.125C20.5417 19.7083 19.8333 20 19 20ZM5 18C5.28333 18 5.52083 17.9042 5.7125 17.7125C5.90417 17.5208 6 17.2833 6 17C6 16.7167 5.90417 16.4792 5.7125 16.2875C5.52083 16.0958 5.28333 16 5 16C4.71667 16 4.47917 16.0958 4.2875 16.2875C4.09583 16.4792 4 16.7167 4 17C4 17.2833 4.09583 17.5208 4.2875 17.7125C4.47917 17.9042 4.71667 18 5 18ZM5 20C4.16667 20 3.45833 19.7083 2.875 19.125C2.29167 18.5417 2 17.8333 2 17C2 16.1667 2.29167 15.4583 2.875 14.875C3.45833 14.2917 4.16667 14 5 14C5.65 14 6.23333 14.1875 6.75 14.5625C7.26667 14.9375 7.625 15.4167 7.825 16H13.1C13.2833 14.8667 13.7542 13.875 14.5125 13.025C15.2708 12.175 16.2 11.5833 17.3 11.25L15.9 5H13C12.7167 5 12.4792 4.90417 12.2875 4.7125C12.0958 4.52083 12 4.28333 12 4C12 3.71667 12.0958 3.47917 12.2875 3.2875C12.4792 3.09583 12.7167 3 13 3H15.9C16.3667 3 16.7833 3.14167 17.15 3.425C17.5167 3.70833 17.75 4.08333 17.85 4.55L19.5 11.875C19.5667 12.1583 19.5083 12.4125 19.325 12.6375C19.1417 12.8625 18.9 12.9917 18.6 13.025C17.55 13.1083 16.6958 13.5375 16.0375 14.3125C15.3792 15.0875 15.0333 16 15 17.05C15 17.3167 14.9083 17.5417 14.725 17.725C14.5417 17.9083 14.3167 18 14.05 18H7.825C7.625 18.5833 7.26667 19.0625 6.75 19.4375C6.23333 19.8125 5.65 20 5 20Z" fill="#111111"/>
</mask>
<g mask="url(#mask0_826_31578)">
<rect width="24" height="24" fill="#111111"/>
</g>
</svg>
