<svg width="24" height="24" viewBox="0 0 24 24" fill="none" xmlns="http://www.w3.org/2000/svg">
<mask id="mask0_1092_55685" style="mask-type:alpha" maskUnits="userSpaceOnUse" x="3" y="3" width="18" height="19">
<path d="M5.63399 16.9409L4.03413 16.962C3.75082 16.9657 3.51208 16.873 3.3179 16.6839C3.12372 16.4948 3.02477 16.2586 3.02103 15.9753C3.01729 15.692 3.10998 15.4532 3.29911 15.259C3.48823 15.0649 3.72444 14.9659 4.00775 14.9622L8.0074 14.9094C8.29071 14.9057 8.52946 14.9984 8.72363 15.1875C8.91781 15.3766 9.01677 15.6128 9.02051 15.8961L9.07327 19.8958C9.077 20.1791 8.98431 20.4178 8.79519 20.612C8.60607 20.8062 8.36985 20.9051 8.08654 20.9089C7.80323 20.9126 7.56449 20.8199 7.37031 20.6308C7.17614 20.4417 7.07718 20.2055 7.07344 19.9222L7.05234 18.3223L4.6842 20.7537C4.5033 20.9395 4.2712 21.0342 3.98789 21.0379C3.70458 21.0417 3.47006 20.9531 3.28432 20.7722C3.09859 20.5913 3.00385 20.3592 3.00011 20.0759C2.99638 19.7926 3.08496 19.5581 3.26586 19.3723L5.63399 16.9409Z" fill="#111111"/>
<path d="M19.2826 3.27883L16.8957 5.69186L16.887 4.09188C16.8855 3.80855 16.7884 3.57158 16.5957 3.38096C16.4029 3.19033 16.1649 3.0958 15.8816 3.09734C15.5983 3.09888 15.3613 3.19601 15.1707 3.38871C14.9801 3.58142 14.8855 3.81944 14.8871 4.10277L14.9088 8.10271C14.9104 8.38604 15.0075 8.62301 15.2002 8.81363C15.3929 9.00425 15.6309 9.09879 15.9143 9.09725L19.9142 9.07547C20.1975 9.07393 20.4345 8.97681 20.6251 8.7841C20.8157 8.59139 20.9103 8.35337 20.9087 8.07004C20.9072 7.78672 20.8101 7.54974 20.6174 7.35912C20.4247 7.1685 20.1866 7.07396 19.9033 7.0755L18.3033 7.08421L20.6902 4.67118C20.8726 4.48686 20.963 4.25303 20.9614 3.9697C20.9599 3.68637 20.8669 3.45354 20.6826 3.2712C20.4983 3.08887 20.2645 2.99848 19.9811 3.00002C19.6978 3.00156 19.465 3.0945 19.2826 3.27883Z" fill="#111111"/>
</mask>
<g mask="url(#mask0_1092_55685)">
<rect width="24" height="24" fill="#111111"/>
</g>
</svg>
